<svg data-name="Group 523" xmlns="http://www.w3.org/2000/svg" width="83.52" height="25.465" viewBox="0 0 83.52 25.465">
    <defs>
        <clipPath id="pagn9tn3aa">
            <path data-name="Rectangle 1" style="fill:#a6a7ab" d="M0 0h83.52v25.465H0z"/>
        </clipPath>
    </defs>
    <g data-name="Group 1" style="clip-path:url(#pagn9tn3aa)">
        <path data-name="Path 1" d="M2.617 6.914C4.681 5.679 8.9 3.225 8.9 3.225s4.226 2.436 6.3 3.662c.034 2.269.045 7.062.045 7.062s-2.562 1.7-3.7 2.358c.848.488 2.555 1.518 2.555 1.518l3.727-2.225L17.8 5.128 8.889 0 0 5.167l.022 10.476 3.745 2.2s1.7-1.037 2.548-1.529C5.173 15.662 2.6 13.976 2.6 13.976s-.01-4.792.015-7.062" style="fill:#a6a7ab"/>
        <path data-name="Path 2" d="m26.911 11.583-3.745-2.2s-1.7 1.037-2.548 1.528c1.141.657 3.711 2.342 3.711 2.342s.01 4.793-.015 7.062A870.767 870.767 0 0 1 18.036 24v.019c-1.417-.819-3.451-2-4.7-2.74a429.2 429.2 0 0 1-1.595-.937c-.034-2.27-.046-7.062-.046-7.062l.013-.008c.13-.087 2.58-1.706 3.689-2.35-.848-.488-2.555-1.518-2.555-1.518l-3.736 2.219L9.13 22.1l1.6.919 7.317 4.21 8.864-5.153.025-.015z" transform="translate(-1.711 -1.762)" style="fill:#a6a7ab"/>
        <path data-name="Path 3" d="M99.661 12.375a3.905 3.905 0 0 0-5.79.111.568.568 0 0 1-.151.119v-1.173h-2.654v10.525h2.653V21.9h.019v-.589c0-1.869-.008-3.738 0-5.607a2.183 2.183 0 0 1 1.7-2.265 2.1 2.1 0 0 1 2.65 2.207c.019 1.885.006 3.771.006 5.656v.653h2.533v-7.35a3.928 3.928 0 0 0-.969-2.231" transform="translate(-17.11 -2.094)" style="fill:#a6a7ab"/>
        <path data-name="Path 4" d="M49.815 16.094a4.8 4.8 0 0 1-2.292 2.181 5.081 5.081 0 0 1-7.064-3.935A5.823 5.823 0 0 1 42 8.99c2.025-1.964 6.049-1.763 7.586.815.166.277.335.551.523.86l2.012-1.208a.62.62 0 0 0 0-.143c-.023-.062-.054-.119-.082-.179a6.581 6.581 0 0 0-5.474-3.843A7.82 7.82 0 0 0 38.7 9.054a8.588 8.588 0 0 0-.949 5.192 7.443 7.443 0 0 0 6.987 6.865 7.267 7.267 0 0 0 5.722-1.768 6.559 6.559 0 0 0 1.818-2.709l-2.112-1.185c-.132.244-.231.452-.352.646" transform="translate(-7.082 -.981)" style="fill:#a6a7ab"/>
        <path data-name="Path 5" d="M62.582 10.1a3.912 3.912 0 0 0-2.441 1.192V5.3h-2.506v15.5h2.515v-.586c0-1.853-.006-3.706 0-5.559a2.231 2.231 0 0 1 1.658-2.309 2.12 2.12 0 0 1 2.7 2.2c.019 1.887 0 3.773 0 5.659v.607h2.457c0-2.491.1-4.956-.028-7.409-.122-2.382-2.107-3.588-4.366-3.313" transform="translate(-10.829 -.996)" style="fill:#a6a7ab"/>
        <path data-name="Path 6" d="M80.594 14.859a3.329 3.329 0 0 0-1.489-2.973 5.674 5.674 0 0 0-6.3.392 3.434 3.434 0 0 0-1.153 2.265l2.256.478a1.648 1.648 0 0 0 .1-.231 2.242 2.242 0 0 1 3.4-1.325 1.98 1.98 0 0 1 .692 1.073c.152.527-.085.8-.63.924-.322.074-.656.094-.982.154a11.332 11.332 0 0 0-3.554.869 3.046 3.046 0 0 0-.345 5c1.743 1.3 4.494.834 5.466-.545a1 1 0 0 1 .217-.155l.115 1.131h2.327c-.033-.442-.084-.819-.087-1.2-.013-1.952 0-3.905-.026-5.857m-5.176 5.405a1.369 1.369 0 0 1-1.453-1.164 1.29 1.29 0 0 1 1.111-1.516c.983-.2 1.986-.322 2.979-.478.322 1.983-.744 3.23-2.643 3.159" transform="translate(-13.422 -2.088)" style="fill:#a6a7ab"/>
        <path data-name="Path 7" d="M85.763 11.5h-.481v10.522h2.643V11.5h-2.049a1.06 1.06 0 0 0-.114 0" transform="translate(-16.023 -2.16)" style="fill:#a6a7ab"/>
        <path data-name="Path 8" d="M86.519 4.946a1.626 1.626 0 0 0-1.633 1.64A1.57 1.57 0 0 0 86.525 8.2a1.618 1.618 0 0 0 1.647-1.618 1.683 1.683 0 0 0-1.653-1.635" transform="translate(-15.949 -.929)" style="fill:#a6a7ab"/>
    </g>
</svg>
