<svg data-name="Group 535" xmlns="http://www.w3.org/2000/svg" width="30.502" height="29.993" viewBox="0 0 30.502 29.993">
    <defs>
        <clipPath id="pgx2z6c4ua">
            <path data-name="Rectangle 761" style="fill:#19d5be" d="M0 0h30.502v29.993H0z"/>
        </clipPath>
    </defs>
    <g data-name="Group 534" style="clip-path:url(#pgx2z6c4ua)">
        <path data-name="Path 4829" d="M7.935 38.613H2.71A1.21 1.21 0 0 1 1.5 37.4V12.423a.618.618 0 0 1 .617-.617h6.41a.618.618 0 0 1 .618.617V37.4a1.21 1.21 0 0 1-1.21 1.213z" transform="translate(-1.141 -8.979)" style="fill:#19d5be"/>
        <path data-name="Path 4830" d="M14.58 24.417a1.325 1.325 0 1 0-1.325 1.325 1.325 1.325 0 0 0 1.325-1.325" transform="translate(-9.074 -17.563)" style="fill:#19d5be"/>
        <path data-name="Line 2" transform="translate(1.862 19.327)" style="fill:none" d="M0 0h4.638"/>
        <path data-name="Line 3" transform="translate(1.862 21.888)" style="fill:none" d="M0 0h4.638"/>
        <path data-name="Path 4831" d="M54.17 28.307h-5.225a1.21 1.21 0 0 1-1.21-1.21V2.117a.617.617 0 0 1 .617-.617h6.409a.617.617 0 0 1 .617.617V27.1a1.21 1.21 0 0 1-1.208 1.207z" transform="translate(-36.306 -1.141)" style="fill:#19d5be"/>
        <path data-name="Path 4832" d="M60.815 14.11a1.325 1.325 0 1 0-1.325 1.325 1.325 1.325 0 0 0 1.325-1.325" transform="translate(-44.239 -9.724)" style="fill:#19d5be"/>
        <path data-name="Line 4" transform="translate(12.932 16.859)" style="fill:none" d="M0 0h4.638"/>
        <path data-name="Line 5" transform="translate(12.932 19.42)" style="fill:none" d="M0 0h4.638"/>
        <path data-name="Path 4833" d="M100.4 38.613h-5.221a1.21 1.21 0 0 1-1.21-1.21v-24.98a.617.617 0 0 1 .617-.617H101a.617.617 0 0 1 .617.617V37.4a1.21 1.21 0 0 1-1.217 1.213z" transform="translate(-71.471 -8.979)" style="fill:#19d5be"/>
        <path data-name="Path 4834" d="M107.05 24.417a1.325 1.325 0 1 0-1.325 1.325 1.325 1.325 0 0 0 1.325-1.325" transform="translate(-79.405 -17.563)" style="fill:#19d5be"/>
        <path data-name="Line 6" transform="translate(24.001 19.327)" style="fill:none" d="M0 0h4.638"/>
        <path data-name="Line 7" transform="translate(24.001 21.888)" style="fill:none" d="M0 0h4.638"/>
        <path data-name="Line 8" transform="translate(14.116 21.588)" style="fill:none" d="M0 0v3.539"/>
        <path data-name="Path 4835" d="M60.345 99.327H58.96v-1.77h1.385a.885.885 0 0 1 0 1.77z" transform="translate(-44.844 -74.2)" style="fill:#19d5be"/>
        <path data-name="Path 4836" d="M58.961 91.937v-1.77h1.384a.885.885 0 0 1 0 1.77" transform="translate(-44.845 -68.579)" style="fill:#19d5be"/>
        <path data-name="Line 9" transform="translate(3.023 24.29)" style="fill:none" d="M1.158 0 0 3.307"/>
        <path data-name="Line 10" transform="translate(4.182 24.29)" style="fill:none" d="m0 0 1.158 3.307"/>
        <path data-name="Line 11" transform="translate(3.413 26.483)" style="fill:none" d="M0 0h1.538"/>
        <path data-name="Path 4837" d="M107.954 104.17a.725.725 0 0 1-.725.725h-.292a.8.8 0 0 1-.8-.8v-1.581a.8.8 0 0 1 .8-.8h.292a.725.725 0 0 1 .725.725" transform="translate(-80.724 -77.359)" style="fill:#19d5be"/>
    </g>
</svg>
