<svg data-name="Group 507" xmlns="http://www.w3.org/2000/svg" width="46.431" height="46.437" viewBox="0 0 46.431 46.437">
    <defs>
        <clipPath id="lzsyq4wuya">
            <path data-name="Rectangle 132" style="fill:none" d="M0 0h46.431v46.437H0z"/>
        </clipPath>
    </defs>
    <g data-name="Group 82" style="clip-path:url(#lzsyq4wuya)">
        <path data-name="Path 205" d="M45.737 28.834A23.21 23.21 0 1 1 28.829.694a23.213 23.213 0 0 1 16.908 28.14" style="fill:#f7931a"/>
        <path data-name="Path 206" d="M37.725 22.971c.463-3.089-1.89-4.75-5.107-5.858l1.044-4.185-2.547-.635-1.015 4.075c-.67-.167-1.358-.324-2.04-.48l1.022-4.1-2.545-.635-1.044 4.184a84.33 84.33 0 0 1-1.627-.382v-.013l-3.513-.877-.678 2.721s1.89.433 1.849.46a1.356 1.356 0 0 1 1.188 1.482l-1.189 4.768a2.2 2.2 0 0 1 .266.085l-.269-.067-1.666 6.679a.928.928 0 0 1-1.167.605c.025.037-1.852-.462-1.852-.462l-1.265 2.917 3.316.827c.616.155 1.22.316 1.816.468l-1.055 4.233 2.545.635 1.044-4.189c.7.189 1.37.363 2.03.527l-1.04 4.168 2.547.635 1.055-4.224c4.343.822 7.61.49 8.985-3.438 1.108-3.163-.055-4.988-2.341-6.179a4.063 4.063 0 0 0 3.253-3.741M31.9 31.132c-.787 3.163-6.114 1.454-7.841 1.024l1.4-5.608c1.727.431 7.264 1.285 6.442 4.583m.788-8.207c-.718 2.878-5.152 1.416-6.59 1.057l1.273-5.081c1.437.358 6.069 1.027 5.321 4.029" transform="translate(-4.273 -3.06)" style="fill:#fff"/>
    </g>
</svg>
