<svg data-name="Group 84" xmlns="http://www.w3.org/2000/svg" width="32.8" height="31.264" viewBox="0 0 32.8 31.264">
    <defs>
        <clipPath id="84n3wln37a">
            <path data-name="Rectangle 165" style="fill:#19d5be" d="M0 0h32.8v31.264H0z"/>
        </clipPath>
    </defs>
    <g data-name="Group 83" style="clip-path:url(#84n3wln37a)">
        <path data-name="Path 198" d="M102.323 29.008h-.952a4.165 4.165 0 0 1-4.16-4.16v-4.77a4.165 4.165 0 0 1 4.16-4.16h.952a4.165 4.165 0 0 1 4.16 4.16v4.77a4.165 4.165 0 0 1-4.16 4.16m-.952-11.88a2.953 2.953 0 0 0-2.95 2.95v4.77a2.953 2.953 0 0 0 2.95 2.95h.952a2.953 2.953 0 0 0 2.95-2.95v-4.77a2.953 2.953 0 0 0-2.95-2.95z" transform="translate(-73.683 -12.065)" style="fill:#19d5be"/>
        <path data-name="Path 199" d="M114.47 19.424a.6.6 0 0 1-.605-.605v-2.3a.605.605 0 1 1 1.21 0v2.3a.605.605 0 0 1-.605.605" transform="translate(-86.306 -12.065)" style="fill:#19d5be"/>
        <path data-name="Path 200" d="M111.375 28.59a1.593 1.593 0 1 1 1.594-1.59 1.6 1.6 0 0 1-1.593 1.593m0-1.976a.383.383 0 1 0 .383.383.384.384 0 0 0-.383-.383" transform="translate(-83.211 -19.255)" style="fill:#19d5be"/>
        <path data-name="Path 201" d="M16.218 35.817h-1.377a3.828 3.828 0 0 1-3.824-3.824v-.521a.605.605 0 1 1 1.21 0v.521a2.617 2.617 0 0 0 2.614 2.614h1.378a2.617 2.617 0 0 0 2.614-2.614v-.521l-.046-1.8a4.775 4.775 0 0 1 1.39-3.377 6.552 6.552 0 0 0 1.954-4.686 6.625 6.625 0 0 0-2.1-4.826 6.555 6.555 0 0 0-4.972-1.758 6.6 6.6 0 0 0-4.234 11.212 4.944 4.944 0 0 1 1.412 2.863h3.293a.605.605 0 0 1 0 1.21h-3.862a.6.6 0 0 1-.605-.605v-.026a3.688 3.688 0 0 0-1.1-2.586 7.81 7.81 0 1 1 11.064.068A3.558 3.558 0 0 0 20 29.675v.025l.046 1.755v.537a3.828 3.828 0 0 1-3.824 3.824" transform="translate(-5.851 -10.462)" style="fill:#19d5be"/>
        <path data-name="Path 202" d="M32.157 103.791a2.5 2.5 0 0 1-2.5-2.5v-.666a.605.605 0 1 1 1.21 0v.666a1.291 1.291 0 0 0 2.581 0v-.672a.605.605 0 1 1 1.21 0v.672a2.5 2.5 0 0 1-2.5 2.5" transform="translate(-22.478 -75.806)" style="fill:#19d5be"/>
        <path data-name="Path 203" d="M38.092 2.863a.6.6 0 0 1-.605-.605V.605a.605.605 0 1 1 1.21 0v1.653a.6.6 0 0 1-.605.605" transform="translate(-28.414)" style="fill:#19d5be"/>
        <path data-name="Path 204" d="M23.746 5.664a.606.606 0 0 1-.569-.4l-.565-1.554a.605.605 0 1 1 1.137-.41l.565 1.554a.606.606 0 0 1-.569.812" transform="translate(-17.111 -2.198)" style="fill:#19d5be"/>
        <path data-name="Path 205" d="M11.226 13.2a.6.6 0 0 1-.464-.216L9.7 11.721a.605.605 0 0 1 .927-.778l1.063 1.267a.605.605 0 0 1-.463.994" transform="translate(-7.245 -8.131)" style="fill:#19d5be"/>
        <path data-name="Path 206" d="M2.036 24.568a.6.6 0 0 1-.3-.081L.3 23.66a.605.605 0 0 1 .605-1.048l1.432.827a.605.605 0 0 1-.3 1.129" transform="translate(0 -17.077)" style="fill:#19d5be"/>
        <path data-name="Path 207" d="M50.665 5.663a.606.606 0 0 1-.569-.812l.566-1.551a.605.605 0 1 1 1.138.414l-.565 1.554a.606.606 0 0 1-.569.4" transform="translate(-37.944 -2.197)" style="fill:#19d5be"/>
        <path data-name="Path 208" d="M61.63 13.2a.605.605 0 0 1-.463-.994l1.063-1.267a.605.605 0 0 1 .927.778l-1.063 1.266a.6.6 0 0 1-.464.216" transform="translate(-46.255 -8.13)" style="fill:#19d5be"/>
        <path data-name="Path 209" d="M69.663 24.568a.605.605 0 0 1-.3-1.129l1.432-.827a.605.605 0 1 1 .605 1.048l-1.432.827a.6.6 0 0 1-.3.081" transform="translate(-52.343 -17.077)" style="fill:#19d5be"/>
        <path data-name="Path 210" d="M79.581 77.054a4.692 4.692 0 0 1-.632-.044 3.87 3.87 0 0 1-3.422-3.631 3.41 3.41 0 0 1 1.744-3.311 2.831 2.831 0 0 1 3.1.205 4.624 4.624 0 0 1 1.229 4.282.6.6 0 1 1-1.2-.171 3.565 3.565 0 0 0-.774-3.153 1.634 1.634 0 0 0-1.791-.1 2.188 2.188 0 0 0-1.102 2.169 2.685 2.685 0 0 0 2.378 2.515c2.429.331 4.157-2.023 4.9-4.138a14.4 14.4 0 0 0 .784-4.8v-1.272a.605.605 0 0 1 1.21 0v1.269a15.607 15.607 0 0 1-.853 5.2c-.835 2.37-2.77 4.977-5.575 4.978" transform="translate(-57.239 -49.268)" style="fill:#19d5be"/>
        <path data-name="Path 211" d="M43.868 114.159a12.815 12.815 0 0 1-1.94-.15 5.648 5.648 0 0 1-3.913-2.468 3.672 3.672 0 0 1-.512-1.129.605.605 0 1 1 1.179-.274 2.483 2.483 0 0 0 .35.747 4.437 4.437 0 0 0 3.079 1.928 10.368 10.368 0 0 0 7.3-1.473 6.5 6.5 0 0 0 1.308-1.166 3.636 3.636 0 0 0 .334-.493.6.6 0 1 1 1.062.58 4.8 4.8 0 0 1-.445.663 7.73 7.73 0 0 1-1.6 1.434 11.33 11.33 0 0 1-6.2 1.8" transform="translate(-28.414 -82.896)" style="fill:#19d5be"/>
    </g>
</svg>
