<svg data-name="Group 120" xmlns="http://www.w3.org/2000/svg" width="35.251" height="29.424" viewBox="0 0 35.251 29.424">
    <defs>
        <clipPath id="2dw2uxhraa">
            <path data-name="Rectangle 184" style="fill:#19d5be" d="M0 0h35.251v29.424H0z"/>
        </clipPath>
    </defs>
    <g data-name="Group 119" style="clip-path:url(#2dw2uxhraa)">
        <path data-name="Path 360" d="M26.415 36.367a.584.584 0 0 1-.562-.425l-.59-2.084a6.112 6.112 0 0 0-3.313-3.885l-1.463-.679a3.851 3.851 0 0 1-2.087-2.446l-.708-2.5a.589.589 0 0 1-.017-.236l.056-.42A1.569 1.569 0 0 0 17 22.156l-.037-.023a.584.584 0 0 1 .617-.993l.036.023a2.74 2.74 0 0 1 1.271 2.685l-.04.3.675 2.381a2.682 2.682 0 0 0 1.454 1.7l1.463.679a7.281 7.281 0 0 1 3.946 4.627l.59 2.084a.584.584 0 0 1-.562.743" transform="translate(-10.188 -12.852)" style="fill:#19d5be"/>
        <path data-name="Path 361" d="M10.3 48.7a.584.584 0 0 1-.517-.312 3.092 3.092 0 0 0-2.114-1.6c-.116-.025-.229-.05-.339-.077A6.96 6.96 0 0 1 3.047 43.4a34.664 34.664 0 0 0-2.912-4.126.584.584 0 0 1 .026-.774 2.508 2.508 0 0 1 1.861-.707 3.939 3.939 0 0 1 2.793 1.779 4.471 4.471 0 0 0 3.85 1.728 4.71 4.71 0 0 0 .28-.032.584.584 0 0 1 .16 1.158q-.172.023-.338.038a5.566 5.566 0 0 1-4.874-2.174 2.944 2.944 0 0 0-1.913-1.33 1.312 1.312 0 0 0-.534.079 33.621 33.621 0 0 1 2.613 3.778 5.787 5.787 0 0 0 3.553 2.766c.1.023.193.046.294.067a4.258 4.258 0 0 1 2.911 2.2.584.584 0 0 1-.516.857" transform="translate(0 -23.069)" style="fill:#19d5be"/>
        <path data-name="Path 362" d="M3.544 23.5a.584.584 0 0 1-.57-.46l-.729-3.34a.58.58 0 0 1 .015-.306L4.4 12.83a.587.587 0 0 1 .7-.386c.606.152 1.667.942 1.345 2.846L5.5 19.461l.63 2.567a.584.584 0 1 1-1.135.279l-.663-2.7a.591.591 0 0 1 0-.269l.968-4.274a1.906 1.906 0 0 0-.056-1.041L3.421 19.61l.695 3.177a.585.585 0 0 1-.446.7.6.6 0 0 1-.125.013" transform="translate(-1.362 -7.587)" style="fill:#19d5be"/>
        <path data-name="Path 363" d="M11.742 20.668a.584.584 0 0 1-.562-.425l-.71-2.51a.588.588 0 0 1-.011-.269l.89-4.64a1.891 1.891 0 0 0-.176-1.632l-.322.994a.584.584 0 0 1-1.112-.36l.575-1.774a.584.584 0 0 1 .758-.368 2.677 2.677 0 0 1 1.418 3.393l-.857 4.47.672 2.377a.584.584 0 0 1-.4.721.593.593 0 0 1-.159.022" transform="translate(-5.928 -5.89)" style="fill:#19d5be"/>
        <path data-name="Path 364" d="M15.994 23.11a.584.584 0 0 1-.561-.423l-.733-2.556a.583.583 0 0 1-.013-.269l.515-2.748a1.837 1.837 0 0 0-.716-1.81l-.082-.06a.584.584 0 1 1 .693-.941l.081.059a3.009 3.009 0 0 1 1.173 2.967l-.489 2.612.7 2.423a.585.585 0 0 1-.562.746" transform="translate(-8.647 -8.662)" style="fill:#19d5be"/>
        <path data-name="Path 365" d="M23.914 64.447a.585.585 0 0 1-.543-.367l-1.347-3.362a.585.585 0 0 1 .345-.767l7.08-2.551a.584.584 0 0 1 .782.55v1.7a.584.584 0 1 1-1.169 0v-.873l-5.728 2.062.922 2.3 4.49-1.382a.584.584 0 1 1 .344 1.117l-5 1.541a.583.583 0 0 1-.172.026" transform="translate(-13.42 -35.023)" style="fill:#19d5be"/>
        <path data-name="Path 366" d="M24.061 65.209a.584.584 0 0 1-.195-1.135l6.5-2.3a.584.584 0 0 1 .39 1.1l-6.5 2.3a.579.579 0 0 1-.195.033" transform="translate(-14.332 -37.693)" style="fill:#19d5be"/>
        <path data-name="Path 367" d="M47.925 36.368a.585.585 0 0 1-.562-.743l.589-2.084a7.28 7.28 0 0 1 3.948-4.628l1.463-.679a2.684 2.684 0 0 0 1.455-1.7l.675-2.381-.04-.3a2.74 2.74 0 0 1 1.271-2.686l.033-.021a.584.584 0 1 1 .621.99l-.036.023a1.572 1.572 0 0 0-.732 1.541l.056.42a.582.582 0 0 1-.017.236l-.708 2.5a3.853 3.853 0 0 1-2.088 2.444l-1.463.678a6.114 6.114 0 0 0-3.313 3.885l-.59 2.084a.584.584 0 0 1-.562.425" transform="translate(-28.901 -12.853)" style="fill:#19d5be"/>
        <path data-name="Path 368" d="M63.137 48.7a.584.584 0 0 1-.516-.857 4.258 4.258 0 0 1 2.912-2.2c.1-.02.2-.043.293-.067a5.789 5.789 0 0 0 3.553-2.765 33.54 33.54 0 0 1 2.612-3.778 1.316 1.316 0 0 0-.534-.079 2.943 2.943 0 0 0-1.912 1.33 5.566 5.566 0 0 1-4.875 2.174 6.953 6.953 0 0 1-.337-.038.584.584 0 1 1 .16-1.157q.142.019.279.031a4.466 4.466 0 0 0 3.852-1.729 3.941 3.941 0 0 1 2.793-1.779 2.517 2.517 0 0 1 1.861.707.585.585 0 0 1 .026.777 34.589 34.589 0 0 0-2.911 4.13 6.964 6.964 0 0 1-4.284 3.317 8.416 8.416 0 0 1-.339.077 3.092 3.092 0 0 0-2.115 1.6.584.584 0 0 1-.517.312" transform="translate(-38.188 -23.069)" style="fill:#19d5be"/>
        <path data-name="Path 369" d="M80.27 23.5a.6.6 0 0 1-.125-.013.585.585 0 0 1-.446-.7l.695-3.177-1.817-5.576a1.978 1.978 0 0 0-.053 1.062l.964 4.241a.585.585 0 0 1 0 .269l-.662 2.7a.584.584 0 1 1-1.135-.279l.629-2.567-.94-4.139c-.328-1.936.733-2.726 1.338-2.878a.586.586 0 0 1 .7.386l2.14 6.569a.58.58 0 0 1 .015.306l-.728 3.331a.585.585 0 0 1-.57.46" transform="translate(-47.2 -7.586)" style="fill:#19d5be"/>
        <path data-name="Path 370" d="M74.2 20.667a.6.6 0 0 1-.16-.022.584.584 0 0 1-.4-.721l.673-2.377-.864-4.5a2.661 2.661 0 0 1 1.425-3.36.583.583 0 0 1 .757.368l.575 1.774a.584.584 0 0 1-1.112.36l-.322-.993a1.835 1.835 0 0 0-.183 1.6l.9 4.673a.583.583 0 0 1-.012.269l-.71 2.51a.584.584 0 0 1-.562.425" transform="translate(-44.76 -5.89)" style="fill:#19d5be"/>
        <path data-name="Path 371" d="M70.721 23.109a.585.585 0 0 1-.562-.746l.7-2.423-.489-2.612a3.01 3.01 0 0 1 1.174-2.968l.08-.059a.584.584 0 1 1 .691.942l-.081.059a1.836 1.836 0 0 0-.716 1.81l.514 2.748a.577.577 0 0 1-.012.269l-.735 2.556a.584.584 0 0 1-.561.423" transform="translate(-42.817 -8.662)" style="fill:#19d5be"/>
        <path data-name="Path 372" d="M53.658 64.447a.585.585 0 0 1-.172-.026l-5-1.541a.584.584 0 1 1 .344-1.117l4.49 1.382.922-2.3-5.732-2.06v.873a.584.584 0 0 1-1.169 0v-1.7a.584.584 0 0 1 .782-.55l7.08 2.548a.584.584 0 0 1 .345.767L54.2 64.08a.585.585 0 0 1-.543.367" transform="translate(-28.901 -35.023)" style="fill:#19d5be"/>
        <path data-name="Path 373" d="M54.423 65.209a.579.579 0 0 1-.195-.033l-6.5-2.3a.584.584 0 0 1 .39-1.1l6.5 2.3a.584.584 0 0 1-.195 1.135" transform="translate(-28.901 -37.693)" style="fill:#19d5be"/>
        <path data-name="Path 374" d="M34.708 13.864a6.932 6.932 0 1 1 6.932-6.932 6.939 6.939 0 0 1-6.932 6.932m0-12.7a5.763 5.763 0 1 0 5.763 5.763 5.77 5.77 0 0 0-5.763-5.763" transform="translate(-16.957)" style="fill:#19d5be"/>
        <path data-name="Path 375" d="M44.656 15.468a.584.584 0 0 1-.584-.584v-7.04a.584.584 0 0 1 1.169 0v7.039a.584.584 0 0 1-.584.584" transform="translate(-26.905 -4.432)" style="fill:#19d5be"/>
        <path data-name="Path 376" d="M42.66 17.465h-7.04a.584.584 0 1 1 0-1.169h7.04a.584.584 0 1 1 0 1.169" transform="translate(-21.389 -9.948)" style="fill:#19d5be"/>
    </g>
</svg>
