<svg xmlns="http://www.w3.org/2000/svg" width="45.105" height="45.54" viewBox="0 0 45.105 45.54">
    <defs>
        <clipPath id="g8zq9um3ma">
            <path data-name="Rectangle 263" d="M0 0h45.105v45.54H0z"/>
        </clipPath>
    </defs>
    <g data-name="Group 146">
        <g data-name="Group 145" style="clip-path:url(#g8zq9um3ma)">
            <path data-name="Path 411" d="M4.681 12.366c3.691-2.209 11.229-6.6 11.229-6.6s7.558 4.356 11.259 6.549c.061 4.058.082 12.629.082 12.629s-4.583 3.034-6.619 4.218c1.516.873 4.569 2.714 4.569 2.714l6.679-3.972-.044-18.733L15.9 0 0 9.241l.039 18.735 6.7 3.942s3.044-1.855 4.557-2.734C9.251 28.009 4.655 25 4.655 25s-.017-8.571.026-12.63"/>
            <path data-name="Path 412" d="m45.066 17.563-6.7-3.942s-3.044 1.855-4.556 2.734c2.046 1.176 6.64 4.184 6.64 4.184s.017 8.571-.026 12.63c-3.691 2.209-11.23 6.6-11.23 6.6v.034a1124.629 1124.629 0 0 1-8.406-4.9v-.006c-1.056-.616-2.046-1.2-2.853-1.676-.061-4.058-.082-12.629-.082-12.629l.022-.015c.234-.154 4.615-3.051 6.6-4.2-1.516-.873-4.569-2.714-4.569-2.714l-6.681 3.976.044 18.734 2.853 1.642 13.086 7.524 15.848-9.215.045-.026z"/>
        </g>
    </g>
</svg>
