<svg xmlns="http://www.w3.org/2000/svg" width="33.181" height="21.612" viewBox="0 0 33.181 21.612">
    <defs>
        <clipPath id="za085mwspa">
            <path data-name="Rectangle 182" style="fill:#19d5be" d="M0 0h33.181v21.612H0z"/>
        </clipPath>
    </defs>
    <g data-name="Group 116">
        <g data-name="Group 115" style="clip-path:url(#za085mwspa)">
            <path data-name="Path 351" d="M27.807 8.734A10.806 10.806 0 0 0 7.653 5.747a7.934 7.934 0 0 0 .281 15.864h18.758a6.487 6.487 0 0 0 1.115-12.877m-1.115 10.713H7.934a5.77 5.77 0 1 1 0-11.539c.111 0 .221 0 .33.01l.744.042.3-.68a8.641 8.641 0 0 1 16.48 2.563l.1.933.938.03a4.321 4.321 0 0 1-.137 8.641" transform="translate(0 .001)" style="fill:#19d5be"/>
            <path data-name="Path 352" d="M34.852 19.041c1.179-.706 3.587-2.108 3.587-2.108s2.414 1.391 3.6 2.092c.019 1.3.026 4.035.026 4.035s-1.464.969-2.114 1.348c.484.279 1.459.867 1.459.867l2.134-1.269-.014-5.985-5.092-2.93-5.079 2.952.012 5.985 2.139 1.259s.972-.592 1.456-.874c-.652-.375-2.121-1.338-2.121-1.338s-.005-2.738.008-4.035" transform="translate(-23.043 -10.425)" style="fill:#19d5be"/>
            <path data-name="Path 353" d="M55.054 29.165s-.972.593-1.456.874c.652.375 2.121 1.338 2.121 1.338s.005 2.738-.008 4.035c-1.179.706-3.587 2.108-3.587 2.108v.011a338.99 338.99 0 0 1-2.685-1.566c-.337-.2-.654-.382-.912-.535-.019-1.3-.026-4.035-.026-4.035h.007c.075-.049 1.474-.975 2.107-1.343-.484-.279-1.459-.867-1.459-.867l-2.134 1.269.014 5.985.912.524 4.18 2.406 5.064-2.944.014-.008-.012-5.985z" transform="translate(-32.482 -20.147)" style="fill:#19d5be"/>
        </g>
    </g>
</svg>
