<svg data-name="Group 559" xmlns="http://www.w3.org/2000/svg" width="27.109" height="27.109" viewBox="0 0 27.109 27.109">
    <defs>
        <clipPath id="u41q6js4pa">
            <path data-name="Rectangle 847" style="fill:#19d5be" d="M0 0h27.109v27.109H0z"/>
        </clipPath>
    </defs>
    <path data-name="Rectangle 839" transform="translate(0 12.167)" style="fill:#19d5be" d="M0 0h2.775v2.775H0z"/>
    <path data-name="Rectangle 840" transform="translate(24.334 12.167)" style="fill:#19d5be" d="M0 0h2.775v2.775H0z"/>
    <path data-name="Rectangle 841" transform="translate(12.208 24.334)" style="fill:#19d5be" d="M0 0h2.775v2.775H0z"/>
    <path data-name="Rectangle 842" transform="translate(12.208)" style="fill:#19d5be" d="M0 0h2.775v2.775H0z"/>
    <path data-name="Rectangle 843" transform="rotate(-45 36.952 -13.557)" style="fill:#19d5be" d="M0 0h2.775v2.775H0z"/>
    <path data-name="Rectangle 844" transform="rotate(-45 7.577 -1.39)" style="fill:#19d5be" d="M0 0h2.775v2.775H0z"/>
    <path data-name="Rectangle 845" transform="rotate(-45 16.187 -21.855)" style="fill:#19d5be" d="M0 0h2.775v2.775H0z"/>
    <path data-name="Rectangle 846" transform="rotate(-45 28.354 7.517)" style="fill:#19d5be" d="M0 0h2.775v2.775H0z"/>
    <g data-name="Group 558">
        <g data-name="Group 557" style="clip-path:url(#u41q6js4pa)">
            <path data-name="Path 4906" d="M26.422 36.08a9.446 9.446 0 1 1 9.446-9.446 9.457 9.457 0 0 1-9.446 9.446m0-16.2a6.757 6.757 0 1 0 6.757 6.757 6.765 6.765 0 0 0-6.757-6.757" transform="translate(-12.826 -12.986)" style="fill:#19d5be"/>
        </g>
    </g>
</svg>
