<svg data-name="Group 577" xmlns="http://www.w3.org/2000/svg" width="50.784" height="48.254" viewBox="0 0 50.784 48.254">
    <defs>
        <clipPath id="b27idodg4a">
            <path data-name="Rectangle 902" style="fill:#19d5be" d="M0 0h50.784v48.254H0z"/>
        </clipPath>
    </defs>
    <g data-name="Group 576" style="clip-path:url(#b27idodg4a)">
        <path data-name="Path 4946" d="M87.383 69.224H78.3a.58.58 0 0 1-.579-.579 4.484 4.484 0 0 0-1.331-3.165 9.054 9.054 0 1 1 12.826.08 4.319 4.319 0 0 0-1.251 3.054.607.607 0 0 1-.579.611m-8.536-1.159h7.983a5.464 5.464 0 0 1 1.567-3.329 7.837 7.837 0 0 0 2.337-5.6 7.923 7.923 0 0 0-2.51-5.773 7.837 7.837 0 0 0-5.947-2.1 7.893 7.893 0 0 0-5.065 13.411 5.672 5.672 0 0 1 1.636 3.4" transform="translate(-45.291 -30.738)" style="fill:#19d5be"/>
        <path data-name="Path 4947" d="M89.485 108.086h-.962a4.7 4.7 0 0 1-4.694-4.694v-.284a.579.579 0 1 1 1.159 0v.284a3.539 3.539 0 0 0 3.536 3.535h.962a3.539 3.539 0 0 0 3.535-3.535v-.284a.579.579 0 1 1 1.159 0v.284a4.7 4.7 0 0 1-4.694 4.694" transform="translate(-51.454 -62.932)" style="fill:#19d5be"/>
        <path data-name="Path 4948" d="M92.757 118.292a2.817 2.817 0 0 1-2.814-2.814v-.786a.579.579 0 0 1 1.159 0v.786a1.655 1.655 0 1 0 3.31 0v-.793a.579.579 0 0 1 1.159 0v.793a2.817 2.817 0 0 1-2.813 2.814" transform="translate(-55.207 -70.038)" style="fill:#19d5be"/>
        <path data-name="Path 4949" d="M96.308 42.062a.579.579 0 0 1-.579-.579v-2.19a.579.579 0 0 1 1.159 0v2.189a.579.579 0 0 1-.579.579" transform="translate(-58.758 -23.763)" style="fill:#19d5be"/>
        <path data-name="Path 4950" d="M85.677 43.937a.58.58 0 0 1-.544-.381l-.749-2.056a.579.579 0 1 1 1.089-.4l.749 2.057a.579.579 0 0 1-.544.778" transform="translate(-51.773 -24.994)" style="fill:#19d5be"/>
        <path data-name="Path 4951" d="M76.33 49.334a.577.577 0 0 1-.444-.207l-1.407-1.677a.58.58 0 0 1 .888-.745l1.407 1.677a.579.579 0 0 1-.443.952" transform="translate(-45.632 -28.541)" style="fill:#19d5be"/>
        <path data-name="Path 4952" d="M69.391 57.6a.574.574 0 0 1-.289-.078l-1.9-1.094a.579.579 0 1 1 .579-1l1.9 1.095a.579.579 0 0 1-.29 1.081" transform="translate(-41.073 -33.973)" style="fill:#19d5be"/>
        <path data-name="Path 4953" d="M65.7 67.746a.605.605 0 0 1-.1-.009l-2.156-.38a.579.579 0 1 1 .2-1.141l2.156.38a.579.579 0 0 1-.1 1.15" transform="translate(-38.647 -40.638)" style="fill:#19d5be"/>
        <path data-name="Path 4954" d="M63.543 78.316a.579.579 0 0 1-.1-1.15l2.156-.38a.579.579 0 1 1 .2 1.141l-2.156.38a.605.605 0 0 1-.1.009" transform="translate(-38.647 -47.126)" style="fill:#19d5be"/>
        <path data-name="Path 4955" d="M125.647 78.316a.608.608 0 0 1-.1-.009l-2.156-.38a.579.579 0 0 1 .2-1.141l2.156.38a.579.579 0 0 1-.1 1.15" transform="translate(-75.443 -47.126)" style="fill:#19d5be"/>
        <path data-name="Path 4956" d="M123.489 67.746a.579.579 0 0 1-.1-1.15l2.156-.38a.579.579 0 0 1 .2 1.141l-2.156.38a.6.6 0 0 1-.1.009" transform="translate(-75.442 -40.638)" style="fill:#19d5be"/>
        <path data-name="Path 4957" d="M120.213 57.6a.579.579 0 0 1-.29-1.081l1.9-1.095a.579.579 0 1 1 .579 1l-1.9 1.094a.574.574 0 0 1-.289.078" transform="translate(-73.43 -33.973)" style="fill:#19d5be"/>
        <path data-name="Path 4958" d="M114.05 49.335a.579.579 0 0 1-.443-.952l1.407-1.677a.58.58 0 0 1 .888.745l-1.408 1.677a.577.577 0 0 1-.444.207" transform="translate(-69.648 -28.541)" style="fill:#19d5be"/>
        <path data-name="Path 4959" d="M105.749 43.937a.574.574 0 0 1-.2-.035.58.58 0 0 1-.346-.743l.748-2.057a.579.579 0 1 1 1.089.4l-.749 2.057a.58.58 0 0 1-.544.381" transform="translate(-64.553 -24.994)" style="fill:#19d5be"/>
        <path data-name="Path 4960" d="M20.759 41.517A20.759 20.759 0 1 1 40.322 13.8a.579.579 0 0 1-1.091.388 19.6 19.6 0 1 0-18.472 26.17 19.443 19.443 0 0 0 8.078-1.737.579.579 0 0 1 .478 1.055 20.6 20.6 0 0 1-8.556 1.84" style="fill:#19d5be"/>
        <path data-name="Path 4961" d="M23.9 11.734c.4.7.768 1.407 1.141 2.1 1.38 2.557 3.206 5.236 6.029 5.922 2.293.557 4.709-.374 6.653-1.712s3.581-3.08 5.5-4.449a17.4 17.4 0 0 1 3.613-1.966 17.826 17.826 0 0 0-22.94.107" transform="translate(-14.67 -4.603)" style="fill:#19d5be"/>
        <path data-name="Path 4962" d="M21.335 66.325a21.092 21.092 0 0 1-.251-1.123c-.538-2.813-.592-5.7-1.138-8.515s-1.672-5.653-3.887-7.469-5.2-2.36-7.948-3.213c-.115-.036-.232-.076-.348-.114a17.835 17.835 0 0 0 13.572 20.434" transform="translate(-4.603 -28.167)" style="fill:#19d5be"/>
        <path data-name="Path 4963" d="M96.308 42.062a.579.579 0 0 1-.579-.579v-2.19a.579.579 0 0 1 1.159 0v2.189a.579.579 0 0 1-.579.579" transform="translate(-58.758 -23.763)" style="fill:#19d5be"/>
        <path data-name="Path 4964" d="M85.677 43.937a.58.58 0 0 1-.544-.381l-.749-2.056a.579.579 0 1 1 1.089-.4l.749 2.057a.579.579 0 0 1-.544.778" transform="translate(-51.773 -24.994)" style="fill:#19d5be"/>
        <path data-name="Path 4965" d="M76.33 49.334a.577.577 0 0 1-.444-.207l-1.407-1.677a.58.58 0 0 1 .888-.745l1.407 1.677a.579.579 0 0 1-.443.952" transform="translate(-45.632 -28.541)" style="fill:#19d5be"/>
        <path data-name="Path 4966" d="M69.391 57.6a.574.574 0 0 1-.289-.078l-1.9-1.094a.579.579 0 1 1 .579-1l1.9 1.095a.579.579 0 0 1-.29 1.081" transform="translate(-41.073 -33.973)" style="fill:#19d5be"/>
        <path data-name="Path 4967" d="M65.7 67.746a.605.605 0 0 1-.1-.009l-2.156-.38a.579.579 0 1 1 .2-1.141l2.156.38a.579.579 0 0 1-.1 1.15" transform="translate(-38.647 -40.638)" style="fill:#19d5be"/>
        <path data-name="Path 4968" d="M63.543 78.316a.579.579 0 0 1-.1-1.15l2.156-.38a.579.579 0 1 1 .2 1.141l-2.156.38a.605.605 0 0 1-.1.009" transform="translate(-38.647 -47.126)" style="fill:#19d5be"/>
        <path data-name="Path 4969" d="M125.647 78.316a.608.608 0 0 1-.1-.009l-2.156-.38a.579.579 0 0 1 .2-1.141l2.156.38a.579.579 0 0 1-.1 1.15" transform="translate(-75.443 -47.126)" style="fill:#19d5be"/>
        <path data-name="Path 4970" d="M123.489 67.746a.579.579 0 0 1-.1-1.15l2.156-.38a.579.579 0 0 1 .2 1.141l-2.156.38a.6.6 0 0 1-.1.009" transform="translate(-75.442 -40.638)" style="fill:#19d5be"/>
        <path data-name="Path 4971" d="M120.213 57.6a.579.579 0 0 1-.29-1.081l1.9-1.095a.579.579 0 1 1 .579 1l-1.9 1.094a.574.574 0 0 1-.289.078" transform="translate(-73.43 -33.973)" style="fill:#19d5be"/>
        <path data-name="Path 4972" d="M114.05 49.335a.579.579 0 0 1-.443-.952l1.407-1.677a.58.58 0 0 1 .888.745l-1.408 1.677a.577.577 0 0 1-.444.207" transform="translate(-69.648 -28.541)" style="fill:#19d5be"/>
        <path data-name="Path 4973" d="M105.749 43.937a.574.574 0 0 1-.2-.035.58.58 0 0 1-.346-.743l.748-2.057a.579.579 0 1 1 1.089.4l-.749 2.057a.58.58 0 0 1-.544.381" transform="translate(-64.553 -24.994)" style="fill:#19d5be"/>
        <path data-name="Path 4974" d="M88.051 61.177a9.29 9.29 0 0 1 5.236 3.66c.078.1.15.211.225.317a6.14 6.14 0 0 0-5.987-7.576q-.219 0-.442.015a6.174 6.174 0 0 0-5.663 5.384 7.927 7.927 0 0 1 6.631-1.8" transform="translate(-49.976 -35.341)" style="fill:#19d5be"/>
    </g>
</svg>
