<svg xmlns="http://www.w3.org/2000/svg" width="33.021" height="33.021" viewBox="0 0 33.021 33.021">
    <defs>
        <clipPath id="7vp353gffa">
            <path data-name="Rectangle 200" style="fill:#19d5be" d="M0 0h33.021v33.021H0z"/>
        </clipPath>
    </defs>
    <g data-name="Group 134">
        <g data-name="Group 133" style="clip-path:url(#7vp353gffa)">
            <path data-name="Path 404" d="M70.566 51.264h-7.259a.588.588 0 1 1 0-1.176h6.671V34.327a.588.588 0 0 1 1.176 0v16.349a.588.588 0 0 1-.588.588" transform="translate(-38.132 -20.513)" style="fill:#19d5be"/>
            <path data-name="Path 405" d="M74.141 13.663a.588.588 0 0 1-.588-.588V12.5h-4.366a.588.588 0 1 1 0-1.176h4.954a.588.588 0 0 1 .588.588v1.163a.588.588 0 0 1-.588.588" transform="translate(-41.707 -6.884)" style="fill:#19d5be"/>
            <path data-name="Path 406" d="M28.076 71.2H17.7a.588.588 0 0 1-.588-.588V67.12a.588.588 0 1 1 1.176 0v2.906h9.787a.588.588 0 1 1 0 1.176" transform="translate(-10.405 -40.451)" style="fill:#19d5be"/>
            <path data-name="Path 407" d="M24.41 33.021a.592.592 0 0 1-.188-.031L.4 24.967a.588.588 0 0 1-.37-.745L8.054.4A.588.588 0 0 1 8.8.031l23.821 8.023a.588.588 0 0 1 .369.745l-8.022 23.822a.588.588 0 0 1-.557.4m-23.078-8.98 22.707 7.648 7.649-22.708L8.981 1.333z" style="fill:#19d5be"/>
            <path data-name="Path 408" d="M43.866 15.287a3.252 3.252 0 0 1-3.248-3.248V8.985a.588.588 0 0 1 1.176 0v3.054a2.072 2.072 0 0 0 4.144 0V5.931a2.073 2.073 0 0 0-4-.769.588.588 0 0 1-1.092-.437 3.249 3.249 0 0 1 6.265 1.206v6.108a3.252 3.252 0 0 1-3.248 3.248" transform="translate(-24.695 -1.631)" style="fill:#19d5be"/>
            <path data-name="Path 409" d="M46.965 22.15a1.252 1.252 0 0 1-1.25-1.25v-3.054a.588.588 0 1 1 1.176 0V20.9a.075.075 0 0 0 .074.074.588.588 0 0 1 0 1.176" transform="translate(-27.794 -10.493)" style="fill:#19d5be"/>
        </g>
    </g>
</svg>
