<svg xmlns="http://www.w3.org/2000/svg" width="26.255" height="26.255" viewBox="0 0 26.255 26.255">
    <defs>
        <clipPath id="3djrc4d4va">
            <path data-name="Rectangle 894" style="fill:none" d="M0 0h26.255v26.255H0z"/>
        </clipPath>
    </defs>
    <g data-name="Group 573">
        <g data-name="Group 572" style="clip-path:url(#3djrc4d4va)">
            <path data-name="Path 4926" d="M26.255 13.129A13.127 13.127 0 1 1 13.126 0a13.128 13.128 0 0 1 13.129 13.129" transform="translate(0 -.001)" style="fill:#565656"/>
            <path data-name="Path 4927" d="M16.286 3.022a.306.306 0 0 0-.2-.223 1.054 1.054 0 0 0-.551.04S3.26 7.248 2.56 7.739c-.151.1-.2.164-.225.236a.409.409 0 0 0 .255.5l3.163 1.032a.347.347 0 0 0 .159-.007c.721-.453 7.238-4.571 7.614-4.709.061-.016.1 0 .093.045-.151.528-5.811 5.56-5.811 5.56a.235.235 0 0 0-.037.058l-.005-.005-.3 3.139s-.122.96.838 0a27.276 27.276 0 0 1 1.662-1.522c1.087.75 2.259 1.58 2.763 2.015a.877.877 0 0 0 .642.247c.477-.019.612-.543.612-.543s2.235-9 2.309-10.2c.008-.119.019-.194.019-.276a.961.961 0 0 0-.027-.278" transform="translate(3.816 4.578)" style="fill:#fff"/>
        </g>
    </g>
</svg>
