<svg xmlns="http://www.w3.org/2000/svg" width="26.255" height="26.255" viewBox="0 0 26.255 26.255">
    <defs>
        <clipPath id="7qrgcsyp4a">
            <path data-name="Rectangle 891" style="fill:none" d="M0 0h26.255v26.255H0z"/>
        </clipPath>
    </defs>
    <g data-name="Group 569">
        <g data-name="Group 568" style="clip-path:url(#7qrgcsyp4a)">
            <path data-name="Path 4919" d="M13.129 0a13.127 13.127 0 1 0 13.129 13.129A13.128 13.128 0 0 0 13.129 0" transform="translate(0 -.001)" style="fill:#565656"/>
            <path data-name="Path 4920" d="M3.538 6.386C4.9 5.569 7.69 3.947 7.69 3.947s2.794 1.609 4.162 2.421c.021 1.5.029 4.669.029 4.669s-1.694 1.121-2.447 1.559c.562.323 1.689 1 1.689 1l2.471-1.469-.018-6.927-5.891-3.385L1.807 5.23l.016 6.928L4.3 13.613s1.124-.684 1.684-1.01c-.756-.435-2.455-1.548-2.455-1.548s-.005-3.168.011-4.669" transform="translate(2.984 2.996)" style="fill:#fff"/>
            <path data-name="Path 4921" d="m15.422 5.172-2.476-1.458s-1.124.687-1.684 1.013c.753.432 2.452 1.548 2.452 1.548s.008 3.168-.008 4.669c-1.365.817-4.152 2.439-4.152 2.439v.017c-.936-.543-2.283-1.323-3.107-1.813l-1.055-.618c-.021-1.5-.029-4.669-.029-4.669l.008-.005c.085-.058 1.7-1.129 2.436-1.556-.559-.321-1.689-1-1.689-1L3.651 5.2l.016 6.925 1.055.607 4.838 2.784 5.859-3.407.016-.011z" transform="translate(6.029 6.132)" style="fill:#fff"/>
        </g>
    </g>
</svg>
