<svg xmlns="http://www.w3.org/2000/svg" width="26.255" height="26.255" viewBox="0 0 26.255 26.255">
    <defs>
        <clipPath id="6ruzy344za">
            <path data-name="Rectangle 890" style="fill:none" d="M0 0h26.255v26.255H0z"/>
        </clipPath>
    </defs>
    <g data-name="Group 567">
        <g data-name="Group 566" style="clip-path:url(#6ruzy344za)">
            <path data-name="Path 4917" d="M26.255 13.129A13.127 13.127 0 1 1 13.126 0a13.128 13.128 0 0 1 13.129 13.129" transform="translate(0 -.001)" style="fill:#565656;fill-rule:evenodd"/>
            <path data-name="Path 4918" d="M7.092 16.4a9.852 9.852 0 0 0 9.918-9.916c0-.151 0-.3-.011-.451a7.083 7.083 0 0 0 1.739-1.805 6.929 6.929 0 0 1-2 .549 3.488 3.488 0 0 0 1.531-1.927 7.012 7.012 0 0 1-2.214.846 3.487 3.487 0 0 0-6.029 2.383 3.4 3.4 0 0 0 .09.8 9.89 9.89 0 0 1-7.184-3.648 3.484 3.484 0 0 0 1.079 4.656 3.46 3.46 0 0 1-1.58-.437v.045a3.487 3.487 0 0 0 2.8 3.417 3.537 3.537 0 0 1-1.575.061 3.491 3.491 0 0 0 3.256 2.421 7.006 7.006 0 0 1-4.329 1.493 6.653 6.653 0 0 1-.832-.05A9.87 9.87 0 0 0 7.092 16.4" transform="translate(2.885 4.284)" style="fill:#fff"/>
        </g>
    </g>
</svg>
