<svg data-name="Group 575" xmlns="http://www.w3.org/2000/svg" width="54.999" height="48.254" viewBox="0 0 54.999 48.254">
    <defs>
        <clipPath id="lg17jpm03a">
            <path data-name="Rectangle 901" style="fill:#19d5be" d="M0 0h54.999v48.254H0z"/>
        </clipPath>
    </defs>
    <g data-name="Group 574" style="clip-path:url(#lg17jpm03a)">
        <path data-name="Path 4928" d="M40.538 61.8a.6.6 0 0 1-.58-.439l-.931-3.29a9.967 9.967 0 0 0-5.4-6.334l-2.309-1.071a5.761 5.761 0 0 1-3.122-3.658l-1.118-3.941a.6.6 0 0 1-.018-.244l.088-.663a2.8 2.8 0 0 0-1.3-2.742l-.058-.035a.6.6 0 1 1 .637-1.025l.057.035a4.005 4.005 0 0 1 1.858 3.926l-.072.54 1.083 3.821a4.558 4.558 0 0 0 2.469 2.893l2.309 1.071a11.171 11.171 0 0 1 6.055 7.1l.93 3.289a.6.6 0 0 1-.416.745.613.613 0 0 1-.165.023" transform="translate(-15.246 -22.872)" style="fill:#19d5be"/>
        <path data-name="Path 4929" d="M15.941 80.434a.6.6 0 0 1-.534-.322 5.2 5.2 0 0 0-3.555-2.69q-.269-.056-.524-.119a10.667 10.667 0 0 1-6.561-5.084A55.04 55.04 0 0 0 .14 65.664a.6.6 0 0 1 .027-.8 3.668 3.668 0 0 1 2.69-1.016c1.432.07 2.836.974 4.172 2.685a7.373 7.373 0 0 0 6.358 2.851c.15-.013.3-.03.457-.051a.6.6 0 1 1 .164 1.2c-.175.024-.346.043-.515.058a8.479 8.479 0 0 1-7.415-3.31c-1.111-1.43-2.215-2.181-3.278-2.23a2.454 2.454 0 0 0-1.331.331 53.709 53.709 0 0 1 4.346 6.235 9.455 9.455 0 0 0 5.808 4.515q.232.058.475.108a6.4 6.4 0 0 1 4.379 3.309.6.6 0 0 1-.533.885" transform="translate(0 -38.159)" style="fill:#19d5be"/>
        <path data-name="Path 4930" d="M5.162 41.914a.6.6 0 0 1-.589-.475l-1.15-5.258a.6.6 0 0 1 .016-.315L6.817 25.5a.6.6 0 0 1 .72-.4c.857.215 2.355 1.354 1.886 4.129l-1.507 6.639 1.012 4.125a.6.6 0 1 1-1.172.287L6.71 36.017a.61.61 0 0 1 0-.278L8.239 29a2.551 2.551 0 0 0-.5-2.424l-3.1 9.513 1.115 5.1a.6.6 0 0 1-.461.718.623.623 0 0 1-.13.014" transform="translate(-2.038 -14.992)" style="fill:#19d5be"/>
        <path data-name="Path 4931" d="M17.728 37.593a.6.6 0 0 1-.58-.439l-1.121-3.962a.6.6 0 0 1-.012-.278l1.4-7.323c.467-1.848-.189-2.8-.727-3.246l-.675 2.083a.6.6 0 1 1-1.148-.372l.906-2.8a.6.6 0 0 1 .782-.381c1.044.384 2.814 1.918 2.038 4.977L17.227 33l1.082 3.824a.6.6 0 0 1-.416.745.613.613 0 0 1-.165.023" transform="translate(-8.871 -12.456)" style="fill:#19d5be"/>
        <path data-name="Path 4932" d="M24.216 41.218a.6.6 0 0 1-.58-.437l-1.159-4.034a.605.605 0 0 1-.013-.278l.812-4.337a3.22 3.22 0 0 0-1.255-3.174l-.128-.094a.6.6 0 0 1 .714-.973l.128.093a4.433 4.433 0 0 1 1.728 4.369l-.786 4.2 1.12 3.9a.6.6 0 0 1-.58.77" transform="translate(-12.939 -16.602)" style="fill:#19d5be"/>
        <path data-name="Path 4933" d="M36.325 104.3a.6.6 0 0 1-.561-.379l-2.126-5.306a.6.6 0 0 1 .356-.792L45.168 93.8a.6.6 0 0 1 .808.568v2.69a.6.6 0 1 1-1.207 0v-1.83l-9.777 3.519 1.686 4.209 7.366-2.267a.6.6 0 0 1 .355 1.154l-7.9 2.43a.605.605 0 0 1-.177.027" transform="translate(-20.081 -56.046)" style="fill:#19d5be"/>
        <path data-name="Path 4934" d="M36.482 105.285a.6.6 0 0 1-.2-1.173l10.255-3.625a.6.6 0 1 1 .4 1.138l-10.254 3.625a.608.608 0 0 1-.2.035" transform="translate(-21.446 -60.043)" style="fill:#19d5be"/>
        <path data-name="Path 4935" d="M72.953 61.8a.613.613 0 0 1-.165-.023.6.6 0 0 1-.416-.745l.93-3.289a11.171 11.171 0 0 1 6.055-7.1l2.309-1.071a4.556 4.556 0 0 0 2.468-2.893l1.084-3.821-.072-.539a4.006 4.006 0 0 1 1.859-3.927l.057-.035a.6.6 0 1 1 .636 1.026l-.057.035a2.8 2.8 0 0 0-1.3 2.742l.088.663a.6.6 0 0 1-.018.244L85.3 47.008a5.761 5.761 0 0 1-3.122 3.658l-2.309 1.071a9.967 9.967 0 0 0-5.4 6.334l-.931 3.29a.6.6 0 0 1-.58.439" transform="translate(-43.245 -22.872)" style="fill:#19d5be"/>
        <path data-name="Path 4936" d="M96.2 80.434a.6.6 0 0 1-.533-.885 6.4 6.4 0 0 1 4.38-3.309q.243-.05.475-.108a9.455 9.455 0 0 0 5.808-4.515 53.771 53.771 0 0 1 4.347-6.237 2.409 2.409 0 0 0-1.351-.328c-1.06.06-2.157.808-3.261 2.222a8.473 8.473 0 0 1-7.415 3.31 9.663 9.663 0 0 1-.515-.058.6.6 0 0 1 .164-1.2q.232.032.457.051a7.374 7.374 0 0 0 6.358-2.851c1.337-1.711 2.74-2.615 4.172-2.685a3.669 3.669 0 0 1 2.69 1.016.6.6 0 0 1 .027.8 55.04 55.04 0 0 0-4.626 6.555 10.667 10.667 0 0 1-6.562 5.084q-.255.064-.523.119a5.2 5.2 0 0 0-3.555 2.69.6.6 0 0 1-.534.322" transform="translate(-57.14 -38.159)" style="fill:#19d5be"/>
        <path data-name="Path 4937" d="M122.5 41.914a.623.623 0 0 1-.13-.014.6.6 0 0 1-.461-.718l1.115-5.1-3.1-9.512a2.6 2.6 0 0 0-.5 2.456l1.526 6.711a.61.61 0 0 1 0 .278l-1.046 4.263a.6.6 0 1 1-1.172-.287l1.012-4.125-1.5-6.6c-.476-2.808 1.022-3.948 1.879-4.163a.6.6 0 0 1 .72.4l3.377 10.368a.6.6 0 0 1 .016.315l-1.15 5.258a.6.6 0 0 1-.589.475" transform="translate(-70.623 -14.992)" style="fill:#19d5be"/>
        <path data-name="Path 4938" d="M113.122 37.592a.613.613 0 0 1-.165-.023.6.6 0 0 1-.416-.745L113.622 33l-1.378-7.183c-.767-3.025 1-4.559 2.046-4.943a.6.6 0 0 1 .782.381l.906 2.8a.6.6 0 1 1-1.148.372l-.675-2.084c-.537.443-1.2 1.387-.734 3.214l1.412 7.357a.6.6 0 0 1-.012.278l-1.121 3.961a.6.6 0 0 1-.58.439" transform="translate(-66.98 -12.455)" style="fill:#19d5be"/>
        <path data-name="Path 4939" d="M107.791 41.218a.6.6 0 0 1-.58-.77l1.12-3.9-.786-4.2a4.433 4.433 0 0 1 1.728-4.369l.128-.093a.6.6 0 1 1 .713.973l-.128.094a3.22 3.22 0 0 0-1.255 3.174l.812 4.337a.605.605 0 0 1-.013.278l-1.159 4.034a.6.6 0 0 1-.58.437" transform="translate(-64.069 -16.602)" style="fill:#19d5be"/>
        <path data-name="Path 4940" d="M82 104.3a.592.592 0 0 1-.177-.027l-7.9-2.43a.6.6 0 0 1 .355-1.154l7.366 2.267 1.687-4.209-9.778-3.519v1.832a.6.6 0 1 1-1.207 0v-2.69a.6.6 0 0 1 .808-.568l11.174 4.022a.6.6 0 0 1 .356.792l-2.126 5.306a.6.6 0 0 1-.56.379" transform="translate(-43.246 -56.046)" style="fill:#19d5be"/>
        <path data-name="Path 4941" d="M83.208 105.285a.608.608 0 0 1-.2-.035l-10.255-3.625a.6.6 0 0 1 .4-1.138l10.255 3.625a.6.6 0 0 1-.2 1.173" transform="translate(-43.245 -60.043)" style="fill:#19d5be"/>
        <path data-name="Path 4942" d="M51.4 0a11.777 11.777 0 1 0 11.779 11.776A11.777 11.777 0 0 0 51.4 0m0 20.7a8.926 8.926 0 1 1 8.926-8.926A8.926 8.926 0 0 1 51.4 20.7" transform="translate(-23.685 .001)" style="fill:#19d5be"/>
        <path data-name="Path 4943" d="M64.416 26.615A3.022 3.022 0 0 1 61.4 23.6a.6.6 0 1 1 1.207 0 1.811 1.811 0 1 0 3.623 0c0-.867-.542-1.366-2-1.842-.7-.228-2.831-.923-2.831-2.988a3.018 3.018 0 0 1 6.037 0 .6.6 0 0 1-1.207 0 1.811 1.811 0 1 0-3.623 0c0 .554.227 1.263 2 1.841 1.318.43 2.831 1.158 2.831 2.988a3.022 3.022 0 0 1-3.018 3.018" transform="translate(-36.699 -9.414)" style="fill:#19d5be"/>
        <path data-name="Path 4944" d="M68 14.972a.6.6 0 0 1-.6-.6v-1.366a.6.6 0 1 1 1.207 0v1.363a.6.6 0 0 1-.6.6" transform="translate(-40.287 -7.414)" style="fill:#19d5be"/>
        <path data-name="Path 4945" d="M68 42.33a.6.6 0 0 1-.6-.6v-1.366a.6.6 0 1 1 1.207 0v1.363a.6.6 0 0 1-.6.6" transform="translate(-40.287 -23.766)" style="fill:#19d5be"/>
    </g>
</svg>
