<svg data-name="Group 589" xmlns="http://www.w3.org/2000/svg" width="47.286" height="47.285" viewBox="0 0 47.286 47.285">
    <defs>
        <clipPath id="h2j61jthza">
            <path data-name="Rectangle 918" style="fill:#19d5be" d="M0 0h47.286v47.285H0z"/>
        </clipPath>
    </defs>
    <g data-name="Group 588" style="clip-path:url(#h2j61jthza)">
        <path data-name="Path 5021" d="M22.6 26.818H4.222A4.227 4.227 0 0 1 0 22.6V4.222A4.227 4.227 0 0 1 4.222 0H22.6a4.227 4.227 0 0 1 4.222 4.222V22.6a4.227 4.227 0 0 1-4.222 4.218M4.222 1.85A2.375 2.375 0 0 0 1.85 4.222V22.6a2.375 2.375 0 0 0 2.373 2.373H22.6a2.375 2.375 0 0 0 2.368-2.373V4.222A2.375 2.375 0 0 0 22.6 1.85z" style="fill:#19d5be"/>
        <path data-name="Path 5022" d="M77.925 82.147H59.552a4.227 4.227 0 0 1-4.222-4.222V60.754a.925.925 0 0 1 1.85 0v17.17a2.375 2.375 0 0 0 2.372 2.376h18.373a2.375 2.375 0 0 0 2.375-2.375V59.551a2.375 2.375 0 0 0-2.373-2.372H60.755a.925.925 0 1 1 0-1.85h17.17a4.227 4.227 0 0 1 4.222 4.222v18.374a4.227 4.227 0 0 1-4.222 4.222" transform="translate(-34.862 -34.861)" style="fill:#19d5be"/>
        <path data-name="Path 5023" d="M82.581 15.492a.925.925 0 0 1-.843-.544l-1.282-2.83a.925.925 0 0 1 .461-1.224l2.83-1.282a.925.925 0 0 1 .763 1.685l-1.988.9.9 1.988a.926.926 0 0 1-.842 1.307" transform="translate(-50.641 -6.004)" style="fill:#19d5be"/>
        <path data-name="Path 5024" d="M92.192 25.743a.924.924 0 0 1-.921-.856 10.878 10.878 0 0 0-10.042-10.042.925.925 0 0 1 .137-1.845 12.728 12.728 0 0 1 11.749 11.75.925.925 0 0 1-.854.991h-.069" transform="translate(-50.641 -8.19)" style="fill:#19d5be"/>
        <path data-name="Path 5025" d="M105.931 39.481a.921.921 0 0 1-.382-.082l-2.83-1.282a.925.925 0 1 1 .764-1.685l1.988.9.9-1.987a.925.925 0 1 1 1.685.763l-1.282 2.83a.924.924 0 0 1-.842.543" transform="translate(-64.379 -21.927)" style="fill:#19d5be"/>
        <path data-name="Path 5026" d="M10.048 82.592a.926.926 0 0 1-.842-1.307l1.282-2.83a.925.925 0 0 1 1.224-.461l2.83 1.282a.925.925 0 1 1-.763 1.685l-1.988-.9-.9 1.988a.925.925 0 0 1-.843.544" transform="translate(-5.749 -49.09)" style="fill:#19d5be"/>
        <path data-name="Path 5027" d="M24.412 90.657h-.069A12.728 12.728 0 0 1 12.594 78.9a.925.925 0 0 1 1.844-.137A10.878 10.878 0 0 0 24.48 88.81a.925.925 0 0 1-.067 1.847" transform="translate(-7.933 -49.09)" style="fill:#19d5be"/>
        <path data-name="Path 5028" d="M35.319 105.678a.925.925 0 0 1-.383-1.767l1.988-.9-.9-1.988a.925.925 0 1 1 1.685-.763l1.282 2.83a.925.925 0 0 1-.461 1.224L35.7 105.6a.915.915 0 0 1-.38.083" transform="translate(-21.67 -62.828)" style="fill:#19d5be"/>
        <path data-name="Path 5029" d="M42.046 49.933a.925.925 0 0 1-.925-.925v-5.691a.925.925 0 1 1 1.85 0v5.691a.925.925 0 0 1-.925.925" transform="translate(-25.909 -26.71)" style="fill:#19d5be"/>
        <path data-name="Path 5030" d="M30.173 49.933H23.2a.925.925 0 0 1-.925-.925v-5.691a.925.925 0 0 1 1.85 0v4.766h6.046a.925.925 0 1 1 0 1.85" transform="translate(-14.036 -26.71)" style="fill:#19d5be"/>
        <path data-name="Path 5031" d="M27.24 15.39a4.161 4.161 0 1 1 4.16-4.16 4.166 4.166 0 0 1-4.16 4.16m0-6.471a2.311 2.311 0 1 0 2.31 2.311 2.314 2.314 0 0 0-2.31-2.311" transform="translate(-14.542 -4.454)" style="fill:#19d5be"/>
        <path data-name="Path 5032" d="M16.1 42.119a.925.925 0 0 1-.925-.925v-8.175a3.033 3.033 0 0 1 3.029-3.029h8.109a3.033 3.033 0 0 1 3.03 3.029V40.4a.925.925 0 1 1-1.85 0v-7.381a1.181 1.181 0 0 0-1.18-1.179h-8.108a1.181 1.181 0 0 0-1.18 1.179v8.175a.925.925 0 0 1-.925.925" transform="translate(-9.562 -18.896)" style="fill:#19d5be"/>
        <path data-name="Path 5033" d="M32.751 35.59a.925.925 0 0 1-.925-.925v-3.75a.925.925 0 1 1 1.85 0v3.75a.925.925 0 0 1-.925.925" transform="translate(-20.053 -18.896)" style="fill:#19d5be"/>
        <path data-name="Path 5034" d="M99.291 107.178a.925.925 0 0 1-.925-.925v-5.691a.925.925 0 0 1 1.85 0v5.691a.925.925 0 0 1-.925.925" transform="translate(-61.978 -62.779)" style="fill:#19d5be"/>
        <path data-name="Path 5035" d="M87.418 107.178h-6.971a.925.925 0 0 1-.925-.925v-5.691a.925.925 0 0 1 1.85 0v4.766h6.046a.925.925 0 1 1 0 1.85" transform="translate(-50.105 -62.779)" style="fill:#19d5be"/>
        <path data-name="Path 5036" d="M84.485 72.635a4.161 4.161 0 1 1 4.161-4.161 4.166 4.166 0 0 1-4.161 4.161m0-6.471a2.311 2.311 0 1 0 2.315 2.311 2.314 2.314 0 0 0-2.311-2.311" transform="translate(-50.61 -40.523)" style="fill:#19d5be"/>
        <path data-name="Path 5037" d="M73.346 99.364a.925.925 0 0 1-.925-.925v-8.175a3.033 3.033 0 0 1 3.029-3.029h8.11a3.033 3.033 0 0 1 3.03 3.029v7.385a.925.925 0 0 1-1.85 0v-7.385a1.181 1.181 0 0 0-1.18-1.179h-8.11a1.181 1.181 0 0 0-1.18 1.179v8.175a.925.925 0 0 1-.925.925" transform="translate(-45.631 -54.965)" style="fill:#19d5be"/>
        <path data-name="Path 5038" d="M90 92.835a.925.925 0 0 1-.925-.925v-3.75a.925.925 0 0 1 1.85 0v3.75a.925.925 0 0 1-.925.925" transform="translate(-56.121 -54.965)" style="fill:#19d5be"/>
        <path data-name="Path 5039" d="M52.28 23.292V9.578A1.077 1.077 0 0 0 51.2 8.5h-5.8l1.533 1.005a7.286 7.286 0 0 1 3.09 4.392z" transform="translate(-28.606 -5.356)" style="fill:#19d5be"/>
        <path data-name="Path 5040" d="M107.817 78.537V64.822a1.078 1.078 0 0 0-1.078-1.078h-5.8l1.533 1.005a7.286 7.286 0 0 1 3.09 4.392z" transform="translate(-63.599 -40.164)" style="fill:#19d5be"/>
    </g>
</svg>
