<svg xmlns="http://www.w3.org/2000/svg" width="33.021" height="32.016" viewBox="0 0 33.021 32.016">
    <defs>
        <clipPath id="4fiy3dp9xa">
            <path data-name="Rectangle 185" style="fill:#19d5be" d="M0 0h33.021v32.016H0z"/>
        </clipPath>
    </defs>
    <g data-name="Group 122">
        <g data-name="Group 121" style="clip-path:url(#4fiy3dp9xa)">
            <path data-name="Path 377" d="M28.973 32.016H4.809A4.815 4.815 0 0 1 0 27.206V.662A.662.662 0 0 1 .662 0h24.164a.662.662 0 0 1 .662.662v26.544a3.489 3.489 0 0 0 3.485 3.486.662.662 0 0 1 0 1.324M1.324 1.324v25.882a3.489 3.489 0 0 0 3.485 3.486h20.854a4.8 4.8 0 0 1-1.5-3.486V1.324z" style="fill:#19d5be"/>
            <path data-name="Path 378" d="M59.644 48.19a.662.662 0 1 1 0-1.324 2.656 2.656 0 0 0 2.656-2.652V30.271h-6.875a.662.662 0 0 1 0-1.324h7.534a.662.662 0 0 1 .662.662v14.6a3.981 3.981 0 0 1-3.976 3.976" transform="translate(-30.599 -16.174)" style="fill:#19d5be"/>
            <path data-name="Path 379" d="M18.334 29.287h-9.47a.548.548 0 1 1 0-1.1h9.471a.548.548 0 1 1 0 1.1" transform="translate(-4.636 -15.752)" style="fill:#19d5be"/>
            <path data-name="Path 380" d="M18.334 21.056h-9.47a.548.548 0 1 1 0-1.1h9.471a.548.548 0 1 1 0 1.1" transform="translate(-4.636 -11.153)" style="fill:#19d5be"/>
            <path data-name="Path 381" d="M25.167 12.826H9.25c-.526 0-.953-.245-.953-.548s.427-.548.953-.548h15.917c.526 0 .953.245.953.548s-.427.548-.953.548" transform="translate(-4.636 -6.554)" style="fill:#19d5be"/>
            <path data-name="Path 382" d="M18.334 59.229h-9.47a.548.548 0 1 1 0-1.1h9.471a.548.548 0 1 1 0 1.1" transform="translate(-4.636 -32.482)" style="fill:#19d5be"/>
            <path data-name="Path 383" d="M18.334 51h-9.47a.548.548 0 1 1 0-1.1h9.471a.548.548 0 1 1 0 1.1" transform="translate(-4.636 -27.884)" style="fill:#19d5be"/>
            <path data-name="Path 384" d="M25.6 40.76H7.223a.662.662 0 1 1 0-1.324H25.6a.662.662 0 1 1 0 1.324" transform="translate(-3.666 -22.035)" style="fill:#19d5be"/>
        </g>
    </g>
</svg>
