<svg data-name="Group 579" xmlns="http://www.w3.org/2000/svg" width="51.323" height="55.664" viewBox="0 0 51.323 55.664">
    <defs>
        <clipPath id="g0f4tuhbaa">
            <path data-name="Rectangle 903" style="fill:#19d5be" d="M0 0h51.323v55.664H0z"/>
        </clipPath>
    </defs>
    <g data-name="Group 578" style="clip-path:url(#g0f4tuhbaa)">
        <path data-name="Path 4975" d="M67.805 102.171a.608.608 0 0 1-.608-.608V79.038a.608.608 0 0 1 1.217 0v22.524a.608.608 0 0 1-.608.608" transform="translate(-39.946 -46.623)" style="fill:#19d5be"/>
        <path data-name="Path 4976" d="M79.405 113.586a.608.608 0 0 1-.608-.608V98.24a.608.608 0 0 1 1.217 0v14.737a.608.608 0 0 1-.608.608" transform="translate(-46.841 -58.038)" style="fill:#19d5be"/>
        <path data-name="Path 4977" d="M91.005 113.586a.608.608 0 0 1-.608-.608V98.24a.608.608 0 0 1 1.217 0v14.737a.608.608 0 0 1-.608.608" transform="translate(-53.737 -58.038)" style="fill:#19d5be"/>
        <path data-name="Path 4978" d="M91.005 87.433a.608.608 0 0 1-.608-.608v-7.787a.608.608 0 0 1 1.217 0v7.787a.608.608 0 0 1-.608.608" transform="translate(-53.737 -46.623)" style="fill:#19d5be"/>
        <path data-name="Path 4979" d="M72.916 44.415a5.035 5.035 0 1 1 5.036-5.035 5.041 5.041 0 0 1-5.036 5.035m0-8.854a3.819 3.819 0 1 0 3.819 3.819 3.823 3.823 0 0 0-3.819-3.819" transform="translate(-40.352 -20.416)" style="fill:#19d5be"/>
        <path data-name="Path 4980" d="M58.625 78.232a.608.608 0 0 1-.608-.608V66.439a3.492 3.492 0 0 1 3.488-3.488h9.715a2.693 2.693 0 0 1 2.48 1.639l1.161 2.722a2.972 2.972 0 0 0 4.826.945.608.608 0 1 1 .857.864 4.189 4.189 0 0 1-6.8-1.332l-1.161-2.722a1.478 1.478 0 0 0-1.362-.9h-9.716a2.274 2.274 0 0 0-2.271 2.271v11.186a.608.608 0 0 1-.608.608" transform="translate(-34.489 -37.422)" style="fill:#19d5be"/>
        <path data-name="Path 4981" d="M77.214 98.848h-9.409a.608.608 0 1 1 0-1.217h9.409a.608.608 0 1 1 0 1.217" transform="translate(-39.946 -58.037)" style="fill:#19d5be"/>
        <path data-name="Path 4982" d="M79.405 69.3a.608.608 0 0 1-.608-.608v-5.133a.608.608 0 1 1 1.217 0v5.131a.608.608 0 0 1-.608.608" transform="translate(-46.841 -37.422)" style="fill:#19d5be"/>
        <path data-name="Path 4983" d="M111.621 65.131a.608.608 0 0 1-.608-.608v-7.975a.608.608 0 1 1 1.217 0v7.974a.608.608 0 0 1-.608.608" transform="translate(-65.992 -33.254)" style="fill:#19d5be"/>
        <path data-name="Path 4984" d="M109.252 47.783H99.08a.608.608 0 0 1-.608-.608v-6.4a.608.608 0 0 1 .608-.608h10.171a.608.608 0 0 1 .608.608v6.4a.608.608 0 0 1-.608.608m-9.563-1.217h8.955v-5.179h-8.954z" transform="translate(-58.537 -23.88)" style="fill:#19d5be"/>
        <path data-name="Path 4985" d="M59.035 11.987a.608.608 0 0 1-.075-1.212 13.368 13.368 0 0 0 2.968-.859l.375-.14a10.894 10.894 0 0 1 3.743-.833 7.613 7.613 0 0 1 2.647.54V1.854a6.832 6.832 0 0 0-2.658-.636 9.277 9.277 0 0 0-3.311.758l-.371.138a14.469 14.469 0 0 1-3.243.926 5.576 5.576 0 0 1-2.9-.352v7.865a.608.608 0 0 1-1.217 0V.309l1 .833a3.893 3.893 0 0 0 2.971.69 13.346 13.346 0 0 0 2.965-.858l.371-.14A10.365 10.365 0 0 1 66.047 0a8.365 8.365 0 0 1 3.516.911l.348.165v10.29l-.869-.412a7.187 7.187 0 0 0-3.005-.794h-.043a9.645 9.645 0 0 0-3.269.758l-.371.138a14.447 14.447 0 0 1-3.243.925.6.6 0 0 1-.076 0" transform="translate(-32.69)" style="fill:#19d5be"/>
        <path data-name="Path 4986" d="M9.652 97.278a.608.608 0 0 1-.608-.608V70.612a.608.608 0 0 1 1.217 0V96.67a.608.608 0 0 1-.608.608" transform="translate(-5.376 -41.614)" style="fill:#19d5be"/>
        <path data-name="Path 4987" d="M23.423 112.013a.608.608 0 0 1-.608-.608V95.4a.608.608 0 1 1 1.217 0v16a.609.609 0 0 1-.608.608" transform="translate(-13.563 -56.349)" style="fill:#19d5be"/>
        <path data-name="Path 4988" d="M37.193 112.013a.608.608 0 0 1-.608-.608V95.4a.608.608 0 1 1 1.217 0v16a.608.608 0 0 1-.608.608" transform="translate(-21.748 -56.349)" style="fill:#19d5be"/>
        <path data-name="Path 4989" d="M37.193 81.272a.608.608 0 0 1-.608-.608V70.612a.608.608 0 0 1 1.217 0v10.052a.608.608 0 0 1-.608.608" transform="translate(-21.748 -41.614)" style="fill:#19d5be"/>
        <path data-name="Path 4990" d="M17.225 44.018a4.837 4.837 0 1 1 4.837-4.837 4.843 4.843 0 0 1-4.837 4.837m0-8.457a3.62 3.62 0 1 0 3.62 3.62 3.624 3.624 0 0 0-3.62-3.62" transform="translate(-7.364 -20.416)" style="fill:#19d5be"/>
        <path data-name="Path 4991" d="M20.821 96.007H9.652a.608.608 0 1 1 0-1.217h11.169a.608.608 0 0 1 0 1.217" transform="translate(-5.376 -56.349)" style="fill:#19d5be"/>
        <path data-name="Path 4992" d="M23.423 67.784a.608.608 0 0 1-.608-.608v-4.9a.608.608 0 0 1 1.217 0v4.9a.609.609 0 0 1-.608.608" transform="translate(-13.563 -36.658)" style="fill:#19d5be"/>
        <path data-name="Path 4993" d="M30.358 40.8h-6.936a.608.608 0 0 1 0-1.217h6.684l5.757-5.757v-8.7a.608.608 0 0 1 1.217 0v8.952a.609.609 0 0 1-.178.43l-6.113 6.113a.61.61 0 0 1-.43.178" transform="translate(-13.562 -14.575)" style="fill:#19d5be"/>
        <path data-name="Path 4994" d="M.608 77.468A.608.608 0 0 1 0 76.86V65.792a4.13 4.13 0 0 1 4.125-4.126H9.86a.608.608 0 1 1 0 1.217H4.125a2.912 2.912 0 0 0-2.909 2.909V76.86a.608.608 0 0 1-.608.608" transform="translate(0 -36.658)" style="fill:#19d5be"/>
        <path data-name="Path 4995" d="M71.32 7.6a4.617 4.617 0 0 0-.841-.1 7.773 7.773 0 0 0-2.664.645l-.369.137A16.1 16.1 0 0 1 63.8 9.309a8.336 8.336 0 0 1-1.305.062 1.114 1.114 0 0 0 .829 1.084 7.176 7.176 0 0 0 1.739.193 27.894 27.894 0 0 1 3.33-.01 14.764 14.764 0 0 1 2.895.951z" transform="translate(-37.148 -4.459)" style="fill:#19d5be"/>
    </g>
</svg>
