<svg data-name="Group 585" xmlns="http://www.w3.org/2000/svg" width="35.297" height="43.812" viewBox="0 0 35.297 43.812">
    <defs>
        <clipPath id="9qf39byqwa">
            <path data-name="Rectangle 916" style="fill:#19d5be" d="M0 0h35.297v43.812H0z"/>
        </clipPath>
    </defs>
    <g data-name="Group 584" style="clip-path:url(#9qf39byqwa)">
        <path data-name="Path 4999" d="M39.394 14.072a1.122 1.122 0 0 1-1.122-1.122 10.706 10.706 0 1 0-21.412 0 1.122 1.122 0 1 1-2.243 0 12.949 12.949 0 1 1 25.9 0 1.122 1.122 0 0 1-1.121 1.122" transform="translate(-9.933 -.001)" style="fill:#19d5be"/>
        <path data-name="Path 5000" d="M61.966 53.3h-1.239a1.122 1.122 0 1 1 0-2.243h1.239a5.1 5.1 0 0 0 5.1-5.1v-8.15a1.122 1.122 0 0 1 1.122-1.122h1.624a3.777 3.777 0 0 1 3.773 3.773v1.612a3.777 3.777 0 0 1-3.773 3.772h-.5v.118a7.349 7.349 0 0 1-7.34 7.34m7.34-9.7h.5a1.532 1.532 0 0 0 1.53-1.529v-1.609a1.531 1.531 0 0 0-1.53-1.53h-.5z" transform="translate(-40.506 -24.933)" style="fill:#19d5be"/>
        <path data-name="Path 5001" d="M12.23 45.843h-1.623a3.777 3.777 0 0 1-3.773-3.773v-1.608a3.777 3.777 0 0 1 3.773-3.773h1.623a1.122 1.122 0 0 1 1.122 1.122v6.911a1.121 1.121 0 0 1-1.122 1.122m-1.624-6.911a1.531 1.531 0 0 0-1.53 1.53v1.607a1.531 1.531 0 0 0 1.53 1.529h.5v-4.667z" transform="translate(-4.644 -24.933)" style="fill:#19d5be"/>
        <path data-name="Path 5002" d="M56.045 79.125h-1.837a1.965 1.965 0 0 1-1.963-1.962v-.51a1.965 1.965 0 0 1 1.963-1.963h1.837a1.965 1.965 0 0 1 1.963 1.963v.51a1.965 1.965 0 0 1-1.963 1.963" transform="translate(-35.504 -50.757)" style="fill:#19d5be"/>
        <path data-name="Path 5003" d="M83.6 101.985h-9.75a1.122 1.122 0 1 1 0-2.243h8.445L81.2 92.586a5.235 5.235 0 0 0-1.79-2.976 4.141 4.141 0 0 0-1.662-.89l-.044-.011-3.428-.9a1.122 1.122 0 0 1 .569-2.17l3.408.895a6.3 6.3 0 0 1 2.584 1.345 7.487 7.487 0 0 1 2.568 4.292c0 .017.007.034.009.051l1.289 8.473a1.122 1.122 0 0 1-1.109 1.29" transform="translate(-49.423 -58.173)" style="fill:#19d5be"/>
        <path data-name="Path 5004" d="M9.847 83.189H1.122a1.121 1.121 0 0 1-1.108-1.295l1.286-8.26c0-.015.005-.03.008-.046A7.468 7.468 0 0 1 3.879 69.3a6.323 6.323 0 0 1 2.588-1.349l5.459-1.585c.041-.023.053-.043.055-.065l.183-1.581a9.954 9.954 0 0 1-1.535-1.758 10.971 10.971 0 0 1-1.079-2.03l-.467-1.121a1.122 1.122 0 0 1 2.071-.862l.467 1.121a8.79 8.79 0 0 0 .855 1.619 7.507 7.507 0 0 0 1.56 1.674 1.12 1.12 0 0 1 .426 1.014l-.252 2.181a2.321 2.321 0 0 1-1.658 1.962l-5.493 1.592a.842.842 0 0 1-.072.018 4.105 4.105 0 0 0-1.681.9A5.222 5.222 0 0 0 3.515 74l-1.083 6.946h7.415a1.121 1.121 0 1 1 0 2.243" transform="translate(0 -39.589)" style="fill:#19d5be"/>
        <path data-name="Path 5005" d="M29.292 24.961a17.925 17.925 0 0 1-1.972-.114 1.122 1.122 0 0 1-.97-.865 7.79 7.79 0 0 1-.043-3.388 10.778 10.778 0 0 1 2.308-4.737 9.176 9.176 0 0 1 7.012-3.393 9.387 9.387 0 0 1 7.7 4.29 11.17 11.17 0 0 1 .862 1.516l.631 1.306a1.122 1.122 0 1 1-2.02.976l-.631-1.306a9.059 9.059 0 0 0-.687-1.216 7.179 7.179 0 0 0-5.857-3.322 6.97 6.97 0 0 0-5.306 2.606 8.528 8.528 0 0 0-1.82 3.751 5.443 5.443 0 0 0-.09 1.627c5.842.347 6.946-2.886 6.992-3.03a1.129 1.129 0 0 1 1.4-.74 1.114 1.114 0 0 1 .754 1.376c-.059.207-1.432 4.664-8.261 4.664" transform="translate(-17.765 -8.471)" style="fill:#19d5be"/>
        <path data-name="Path 5006" d="M61.677 34.52c-5.782 0-7.752-3.93-7.984-6.05a1.121 1.121 0 0 1 2.229-.251c.055.436.682 4.2 6.052 4.053a1.122 1.122 0 0 1 .061 2.242c-.121 0-.241.005-.359.005" transform="translate(-36.484 -18.503)" style="fill:#19d5be"/>
    </g>
</svg>
