<svg data-name="Group 587" xmlns="http://www.w3.org/2000/svg" width="46.254" height="42.5" viewBox="0 0 46.254 42.5">
    <defs>
        <clipPath id="uardr7ocua">
            <path data-name="Rectangle 917" style="fill:#19d5be" d="M0 0h46.254v42.5H0z"/>
        </clipPath>
    </defs>
    <g data-name="Group 586" style="clip-path:url(#uardr7ocua)">
        <path data-name="Path 5007" d="M56.309 44.5a4.963 4.963 0 1 1 4.963-4.964 4.969 4.969 0 0 1-4.963 4.964m0-8.158a3.194 3.194 0 1 0 3.191 3.19 3.2 3.2 0 0 0-3.194-3.194" transform="translate(-33.182 -22.34)" style="fill:#19d5be"/>
        <path data-name="Path 5008" d="M41.812 75.208a.884.884 0 0 1-.884-.884v-7.312a3.541 3.541 0 0 1 3.537-3.537h10.223a3.541 3.541 0 0 1 3.537 3.537v1.2a.884.884 0 0 1-1.769 0v-1.2a1.77 1.77 0 0 0-1.768-1.768H44.465a1.77 1.77 0 0 0-1.765 1.768v7.311a.884.884 0 0 1-.884.884" transform="translate(-26.449 -41.02)" style="fill:#19d5be"/>
        <path data-name="Path 5009" d="M63.759 69.971a.884.884 0 0 1-.884-.884v-4.728a.884.884 0 0 1 1.769 0v4.727a.884.884 0 0 1-.884.884" transform="translate(-40.632 -41.02)" style="fill:#19d5be"/>
        <path data-name="Path 5010" d="M29.639 38.139H3.326A3.33 3.33 0 0 1 0 34.813V3.326A3.33 3.33 0 0 1 3.326 0h39.6a3.33 3.33 0 0 1 3.326 3.326v27.557a.884.884 0 1 1-1.769 0V3.326a1.559 1.559 0 0 0-1.558-1.558H3.326a1.559 1.559 0 0 0-1.557 1.558v31.487a1.559 1.559 0 0 0 1.557 1.557h26.313a.884.884 0 0 1 0 1.769" style="fill:#19d5be"/>
        <path data-name="Path 5011" d="M15.839 15.006a1.3 1.3 0 1 1 1.3-1.3 1.3 1.3 0 0 1-1.3 1.3m0-1.769a.466.466 0 1 0 .466.466.466.466 0 0 0-.466-.466" transform="translate(-9.394 -8.014)" style="fill:#19d5be"/>
        <path data-name="Path 5012" d="M29.326 15.006a1.3 1.3 0 1 1 1.3-1.3 1.3 1.3 0 0 1-1.3 1.3m0-1.769a.466.466 0 1 0 .466.466.466.466 0 0 0-.466-.466" transform="translate(-18.11 -8.014)" style="fill:#19d5be"/>
        <path data-name="Path 5013" d="M42.813 15.006a1.3 1.3 0 1 1 1.3-1.3 1.3 1.3 0 0 1-1.3 1.3m0-1.769a.466.466 0 1 0 .466.466.466.466 0 0 0-.466-.466" transform="translate(-26.825 -8.014)" style="fill:#19d5be"/>
        <path data-name="Path 5014" d="M45.37 29.2H.884a.884.884 0 1 1 0-1.769H45.37a.884.884 0 1 1 0 1.769" transform="translate(0 -17.73)" style="fill:#19d5be"/>
        <path data-name="Path 5015" d="M81.805 15.341H64.083a1.061 1.061 0 1 1 0-2.123h17.722a1.061 1.061 0 1 1 0 2.123" transform="translate(-40.727 -8.542)" style="fill:#19d5be"/>
        <path data-name="Path 5016" d="M12.965 92.758a.884.884 0 0 1-.884-.884v-1.832a.884.884 0 1 1 1.769 0v1.831a.884.884 0 0 1-.884.884" transform="translate(-7.807 -57.617)" style="fill:#19d5be"/>
        <path data-name="Path 5017" d="M19.261 92.758a.884.884 0 0 1-.884-.884v-1.832a.884.884 0 1 1 1.769 0v1.831a.884.884 0 0 1-.884.884" transform="translate(-11.876 -57.617)" style="fill:#19d5be"/>
        <path data-name="Path 5018" d="M45.387 93.516h-17.31a.884.884 0 1 1 0-1.769h17.31a.884.884 0 0 1 0 1.769" transform="translate(-17.573 -59.29)" style="fill:#19d5be"/>
        <path data-name="Path 5019" d="M85.364 93.832a.884.884 0 0 1-.854-.656l-3.385-12.631a.884.884 0 0 1 1.083-1.083l12.631 3.384a.884.884 0 0 1 .4 1.48l-2.957 2.958a.884.884 0 0 1-1.251-1.251l1.869-1.875-9.67-2.591 2.592 9.672 1.878-1.875a.884.884 0 0 1 1.251 1.251l-2.957 2.958a.885.885 0 0 1-.625.259" transform="translate(-52.406 -51.332)" style="fill:#19d5be"/>
        <path data-name="Path 5020" d="M110.519 109.741a.882.882 0 0 1-.625-.259l-3.7-3.7a.884.884 0 0 1 1.251-1.251l3.7 3.695a.884.884 0 0 1-.625 1.51" transform="translate(-68.462 -67.388)" style="fill:#19d5be"/>
    </g>
</svg>
