<svg xmlns="http://www.w3.org/2000/svg" width="30.192" height="24.5" viewBox="0 0 30.192 24.5">
    <defs>
        <clipPath id="f337soeufa">
            <path data-name="Rectangle 990" style="fill:#19d5be" d="M0 0h30.192v24.5H0z"/>
        </clipPath>
    </defs>
    <g data-name="Group 651">
        <g data-name="Group 650" style="clip-path:url(#f337soeufa)">
            <path data-name="Path 5129" d="M28.92 8.585V3.973A3.978 3.978 0 0 0 24.947 0H3.973A3.978 3.978 0 0 0 0 3.973v16.554A3.978 3.978 0 0 0 3.973 24.5h20.974a3.978 3.978 0 0 0 3.973-3.973v-4.613a2.267 2.267 0 0 0 1.272-2.03v-3.269a2.269 2.269 0 0 0-1.272-2.03m-1.6 4.7h-7.03v-2.071h7.032zm-2.373 8.345H3.973a1.1 1.1 0 0 1-1.1-1.1V3.973a1.1 1.1 0 0 1 1.1-1.1h20.974a1.1 1.1 0 0 1 1.1 1.1v4.37h-6.355a2.275 2.275 0 0 0-2.272 2.272v3.269a2.275 2.275 0 0 0 2.272 2.272h6.358v4.37a1.1 1.1 0 0 1-1.1 1.1" style="fill:#19d5be"/>
            <path data-name="Path 5130" d="M27.622 29.207a2.275 2.275 0 0 0-1.12-2.034 2.274 2.274 0 0 1 1.12 2.034" transform="translate(-13.824 -14.175)" style="fill:#19d5be"/>
        </g>
    </g>
</svg>
