<svg xmlns="http://www.w3.org/2000/svg" width="45.105" height="45.54" viewBox="0 0 45.105 45.54">
    <defs>
        <clipPath id="f7xc41c65a">
            <path data-name="Rectangle 263" style="fill:#fff" d="M0 0h45.105v45.54H0z"/>
        </clipPath>
    </defs>
    <g data-name="Group 621">
        <g data-name="Group 145" style="clip-path:url(#f7xc41c65a)">
            <path data-name="Path 411" d="M4.681 12.366c3.691-2.209 11.229-6.6 11.229-6.6s7.558 4.356 11.259 6.549c.061 4.058.082 12.629.082 12.629s-4.583 3.034-6.619 4.218c1.516.873 4.569 2.714 4.569 2.714l6.679-3.972-.044-18.733L15.9 0 0 9.241l.039 18.735 6.7 3.942s3.044-1.855 4.557-2.734C9.251 28.009 4.655 25 4.655 25s-.017-8.571.026-12.63" style="fill:#fff"/>
            <path data-name="Path 412" d="m52.31 25.024-6.7-3.942s-3.044 1.855-4.556 2.734C43.1 24.992 47.694 28 47.694 28s.017 8.571-.026 12.63c-3.691 2.209-11.23 6.6-11.23 6.6v.034a1124.629 1124.629 0 0 1-8.406-4.9v-.006c-1.056-.616-2.046-1.2-2.853-1.676-.061-4.058-.082-12.629-.082-12.629l.022-.015c.234-.154 4.615-3.051 6.6-4.2-1.516-.873-4.569-2.714-4.569-2.714L20.469 25.1l.044 18.734 2.853 1.642L36.452 53 52.3 43.785l.045-.026z" transform="translate(-7.244 -7.461)" style="fill:#fff"/>
        </g>
    </g>
</svg>
