<svg data-name="Group 2" xmlns="http://www.w3.org/2000/svg" width="118.633" height="36.171" viewBox="0 0 118.633 36.171">
    <defs>
        <clipPath id="0p8lori3ka">
            <path data-name="Rectangle 1" style="fill:#20252d" d="M0 0h118.633v36.171H0z"/>
        </clipPath>
    </defs>
    <g data-name="Group 1" style="clip-path:url(#0p8lori3ka)">
        <path data-name="Path 1" d="M3.718 9.821c2.931-1.755 8.919-5.241 8.919-5.241s6 3.459 8.942 5.2c.048 3.223.065 10.031.065 10.031s-3.639 2.41-5.257 3.35c1.2.693 3.629 2.156 3.629 2.156l5.305-3.155-.035-14.879L12.627 0 0 7.34l.031 14.88 5.319 3.131s2.418-1.473 3.619-2.172C7.348 22.246 3.7 19.853 3.7 19.853s-.014-6.807.021-10.031" style="fill:#20252d"/>
        <path data-name="Path 2" d="m34.4 12.51-5.323-3.131s-2.418 1.473-3.619 2.171c1.621.933 5.272 3.327 5.272 3.327s.014 6.808-.021 10.031c-2.932 1.756-8.919 5.242-8.919 5.242v.027a914.94 914.94 0 0 1-6.676-3.892c-.837-.49-1.624-.952-2.266-1.331-.048-3.224-.066-10.031-.066-10.031l.018-.012c.185-.123 3.665-2.424 5.239-3.338-1.2-.693-3.629-2.156-3.629-2.156l-5.304 3.149.035 14.88 2.267 1.3L21.8 34.73l12.591-7.319.036-.021z" transform="translate(1.398 1.44)" style="fill:#20252d"/>
        <path data-name="Path 3" d="M103.274 12.893c-1.986-2.494-6.568-2.208-8.225.158a.807.807 0 0 1-.215.17v-1.669h-3.768V26.5h3.769v-.08h.028v-.836c0-2.654-.012-5.31 0-7.964a3.1 3.1 0 0 1 2.417-3.22 2.988 2.988 0 0 1 3.764 3.135c.028 2.677.008 5.356.008 8.034v.931h3.6V16.061a5.579 5.579 0 0 0-1.376-3.169" transform="translate(13.983 1.711)" style="fill:#20252d"/>
        <path data-name="Path 4" d="M54.911 20.664a6.821 6.821 0 0 1-3.255 3.1c-4.49 1.745-9.37-.781-10.034-5.589-.393-2.849 0-5.474 2.2-7.6 2.877-2.789 8.592-2.5 10.775 1.157.235.393.476.783.743 1.222l2.857-1.715a.881.881 0 0 0 0-.2c-.032-.088-.076-.17-.117-.255a9.348 9.348 0 0 0-7.78-5.463 11.108 11.108 0 0 0-11.176 5.343 12.2 12.2 0 0 0-1.347 7.375A10.572 10.572 0 0 0 47.7 27.79a10.322 10.322 0 0 0 8.128-2.511 9.317 9.317 0 0 0 2.582-3.848l-3-1.683c-.188.347-.329.641-.5.917" transform="translate(5.788 .802)" style="fill:#20252d"/>
        <path data-name="Path 5" d="M64.662 12.113a5.557 5.557 0 0 0-3.468 1.693V5.3h-3.56v22.021h3.573v-.831c0-2.632-.008-5.264 0-7.9a3.17 3.17 0 0 1 2.354-3.28 3.011 3.011 0 0 1 3.84 3.128c.027 2.68.007 5.359.007 8.038v.863H70.9c0-3.538.138-7.039-.04-10.524-.173-3.383-2.992-5.1-6.2-4.706" transform="translate(8.85 .813)" style="fill:#20252d"/>
        <path data-name="Path 6" d="M84.443 16.434a4.729 4.729 0 0 0-2.114-4.223 8.059 8.059 0 0 0-8.952.557 4.878 4.878 0 0 0-1.638 3.217l3.2.679a2.341 2.341 0 0 0 .135-.329 3.185 3.185 0 0 1 4.831-1.883 2.813 2.813 0 0 1 .983 1.524c.216.749-.121 1.134-.9 1.313-.458.1-.932.134-1.395.219-1.706.316-3.471.37-5.048 1.234a4.327 4.327 0 0 0-.49 7.1c2.476 1.853 6.384 1.185 7.763-.774a1.426 1.426 0 0 1 .308-.22l.163 1.607h3.3c-.047-.628-.12-1.164-.123-1.7-.018-2.773.006-5.547-.037-8.319m-7.352 7.678a1.944 1.944 0 0 1-2.054-1.655 1.832 1.832 0 0 1 1.592-2.159c1.4-.291 2.82-.458 4.231-.678.458 2.817-1.057 4.588-3.755 4.487" transform="translate(10.969 1.706)" style="fill:#20252d"/>
        <path data-name="Path 7" d="M85.965 11.5h-.683v14.948h3.754V11.5h-2.91a1.506 1.506 0 0 0-.162 0" transform="translate(13.095 1.765)" style="fill:#20252d"/>
        <path data-name="Path 8" d="M87.206 4.946a2.309 2.309 0 0 0-2.32 2.33 2.23 2.23 0 0 0 2.328 2.29 2.3 2.3 0 0 0 2.339-2.3 2.391 2.391 0 0 0-2.347-2.322" transform="translate(13.034 .759)" style="fill:#20252d"/>
    </g>
</svg>
