<svg data-name="Group 565" xmlns="http://www.w3.org/2000/svg" width="315.708" height="96.258" viewBox="0 0 315.708 96.258">
    <defs>
        <clipPath id="mrbluire1a">
            <path data-name="Rectangle 888" style="fill:#fff" d="M0 0h315.708v96.258H0z"/>
        </clipPath>
    </defs>
    <g data-name="Group 563" style="clip-path:url(#mrbluire1a)">
        <path data-name="Path 4909" d="M9.894 26.138C17.7 21.469 33.63 12.19 33.63 12.19S49.6 21.4 57.428 26.032c.129 8.578.173 26.7.173 26.7s-9.686 6.413-13.99 8.915c3.2 1.844 9.657 5.737 9.657 5.737l14.118-8.4-.093-39.6L33.6 0 0 19.534l.083 39.6 14.155 8.333s6.435-3.921 9.631-5.78c-4.315-2.487-14.03-8.853-14.03-8.853s-.036-18.117.055-26.7" style="fill:#fff"/>
        <path data-name="Path 4910" d="m119.67 62.269-14.155-8.333s-6.435 3.921-9.631 5.78c4.314 2.483 14.029 8.853 14.029 8.853s.036 18.117-.055 26.7c-7.8 4.67-23.736 13.948-23.736 13.948v.072c-5.356-3.1-13.044-7.56-17.766-10.358v-.014a1066.3 1066.3 0 0 1-6.031-3.541c-.129-8.578-.173-26.7-.173-26.7l.047-.031c.494-.327 9.754-6.45 13.943-8.885-3.2-1.844-9.657-5.736-9.657-5.736l-14.118 8.4.093 39.6 6.031 3.47L86.15 121.4l33.509-19.479.094-.055z" transform="translate(-24.413 -25.144)" style="fill:#fff"/>
        <path data-name="Path 4911" d="M556.184 68.742c-5.285-6.637-17.479-5.876-21.888.42a2.151 2.151 0 0 1-.572.452v-4.44H523.7v39.788h10.028v-.214h.075v-2.224c0-7.065-.03-14.13.013-21.194.028-4.442 2.648-7.863 6.421-8.561 5.76-1.066 9.958 2.367 10.019 8.344.073 7.126.019 14.254.02 21.382v2.469h9.575v-27.79c-.149-.531.148-3.337-3.663-8.432" transform="translate(-244.138 -29.879)" style="fill:#fff"/>
        <path data-name="Path 4912" d="M262.58 71.127c-2.161 3.5-4.6 6.666-8.662 8.245-11.949 4.645-24.936-2.077-26.7-14.874-1.046-7.582.007-14.566 5.842-20.224 7.655-7.422 22.862-6.664 28.675 3.078.626 1.048 1.268 2.087 1.978 3.253l7.6-4.566a2.2 2.2 0 0 0-.006-.539 7.429 7.429 0 0 0-.309-.678c-4.151-8.732-11.207-13.3-20.69-14.527-12.121-1.573-24 4-29.74 14.219-3.426 6.1-4.278 12.751-3.585 19.626a28.134 28.134 0 0 0 26.411 25.947c8.056.61 15.494-1.069 21.631-6.682a24.812 24.812 0 0 0 6.868-10.241l-7.982-4.479c-.5.924-.878 1.706-1.331 2.44" transform="translate(-101.049 -14.001)" style="fill:#fff"/>
        <path data-name="Path 4913" d="M350.142 48.607a14.776 14.776 0 0 0-9.227 4.506V30.475h-9.476v58.6h9.509v-2.208c0-7-.023-14.01.01-21.015.022-4.461 2.591-7.98 6.265-8.726 5.812-1.179 10.16 2.3 10.22 8.326.072 7.13.019 14.26.02 21.39v2.3h9.288c0-9.415.37-18.732-.106-28.006-.463-9-7.963-13.562-16.5-12.525" transform="translate(-154.511 -14.207)" style="fill:#fff"/>
        <path data-name="Path 4914" d="M445.433 78.066c-.07-4.588-1.527-8.612-5.629-11.237-6.9-4.416-17.546-3.755-23.819 1.483-2.631 2.2-3.849 5.115-4.36 8.562l8.528 1.809a6.389 6.389 0 0 0 .36-.877c1.385-6.512 8.816-7.615 12.856-5.008a7.48 7.48 0 0 1 2.616 4.053c.572 1.993-.322 3.02-2.383 3.494-1.218.28-2.481.356-3.712.584-4.538.841-9.238.985-13.432 3.286-6.885 3.776-7.618 14.163-1.3 18.89 6.586 4.93 16.987 3.154 20.659-2.059.146-.207.432-.315.819-.586l.432 4.275h8.8c-.125-1.667-.317-3.1-.327-4.526-.05-7.381.016-14.762-.1-22.141M425.868 98.5c-3.05-.114-5.13-1.79-5.468-4.406a4.879 4.879 0 0 1 4.2-5.731c3.719-.775 7.506-1.218 11.259-1.8 1.221 7.5-2.81 12.209-9.991 11.941" transform="translate(-191.52 -29.792)" style="fill:#fff"/>
        <path data-name="Path 4915" d="M492.252 66.113h-1.817V105.9h9.987V66.113h-7.742a3.951 3.951 0 0 0-.429 0" transform="translate(-228.632 -30.818)" style="fill:#fff"/>
        <path data-name="Path 4916" d="M494.329 28.443a6.146 6.146 0 0 0-6.174 6.2 5.939 5.939 0 0 0 6.2 6.1 6.121 6.121 0 0 0 6.226-6.116 6.363 6.363 0 0 0-6.247-6.18" transform="translate(-227.569 -13.26)" style="fill:#fff"/>
    </g>
</svg>
