<svg data-name="Group 517" xmlns="http://www.w3.org/2000/svg" width="50" height="45.318" viewBox="0 0 50 45.318">
    <defs>
        <clipPath id="u7i361pcaa">
            <path data-name="Rectangle 736" style="fill:#1f252e" d="M0 0h50v45.318H0z"/>
        </clipPath>
    </defs>
    <g data-name="Group 516" style="clip-path:url(#u7i361pcaa)">
        <path data-name="Path 4801" d="M2.477 43.232c0 1.132-.18 2.086-1.567 2.086a1.952 1.952 0 0 1-.91-.212v-1.08a1.434 1.434 0 0 0 .7.275c.709 0 .72-.582.72-1.123v-5.95h1.057zm4.256-6 1.715 7.983H7.379l-.3-1.556H5.495l-.3 1.556H4.161L5.9 37.229zm-.423 1.543h-.021l-.636 4.055h1.27zm6.923-.455a1.525 1.525 0 0 0-.677-.2c-1.483 0-1.493 2.16-1.493 3.155 0 1.059.085 3.049 1.535 3.049a1.311 1.311 0 0 0 .635-.159v.935a1.493 1.493 0 0 1-.847.222c-2.16 0-2.445-2.3-2.445-3.97 0-1.6.2-4.224 2.372-4.224a1.637 1.637 0 0 1 .921.233zm5.759 2.9c0 1.439-.021 4.1-2.075 4.1s-2.075-2.657-2.075-4.1.021-4.1 2.075-4.1 2.075 2.657 2.075 4.1m-3.028 0c0 1.694.117 3.1.953 3.1s.953-1.408.953-3.1-.117-3.1-.953-3.1-.953 1.408-.953 3.1m5.113 3.991v-7.982H22.4c1.439 0 1.842.795 1.842 2.139 0 .784-.159 1.546-1.006 1.768v.021c.911.286 1.123.985 1.123 1.874 0 1.471-.54 2.181-2.012 2.181zm1.186-7.082h-.18v2.614c.985.043 1.122-.571 1.122-1.418 0-.625-.211-1.2-.942-1.2m-.18 6.182c.921.042 1.154-.434 1.154-1.313s-.18-1.429-1.154-1.408zm10.364.275a1.68 1.68 0 0 1-1.376.73 1.911 1.911 0 0 1-1.789-1.99 3.131 3.131 0 0 1 1.111-2.138 3.611 3.611 0 0 1-.635-1.874 1.468 1.468 0 0 1 1.525-1.524 1.385 1.385 0 0 1 1.524 1.439 3.085 3.085 0 0 1-1.185 2.107l1.048 1.736.657-.931.677.55-.847 1.186.843 1.339h-1.171zM30.9 42.015a1.751 1.751 0 0 0-.6 1.27 1.029 1.029 0 0 0 .9 1.122.952.952 0 0 0 .8-.55zm1.038-2.784a.57.57 0 0 0-.582-.635.685.685 0 0 0-.625.7 2.954 2.954 0 0 0 .445 1.249 1.965 1.965 0 0 0 .762-1.313m10.205-.91a1.524 1.524 0 0 0-.678-.2c-1.482 0-1.493 2.16-1.493 3.155 0 1.059.085 3.049 1.535 3.049a1.312 1.312 0 0 0 .635-.159v.933a1.493 1.493 0 0 1-.847.222c-2.159 0-2.445-2.3-2.445-3.97 0-1.6.2-4.224 2.371-4.224a1.637 1.637 0 0 1 .921.233zm1.471 4.234c0-1.165.159-2.774 1.684-2.774s1.683 1.609 1.683 2.774c0 1.122-.159 2.742-1.683 2.742s-1.684-1.62-1.684-2.742m2.351 0c0-.423.095-1.863-.667-1.863s-.667 1.44-.667 1.863c0 .381-.1 1.831.667 1.831s.667-1.45.667-1.831m2.763 2.1a.635.635 0 1 1 .635.646.634.634 0 0 1-.635-.646M29.365 1.13c-3.69 0-3.464 2.937-3.464 2.937v15.512a5.654 5.654 0 0 1 6.325.527s1.054.828.753 1.28a1.275 1.275 0 0 1-2.184.151 2.8 2.8 0 0 0-3.915-.452c-1.43.979-2.184 4.292-.6 7.154s6.627.979 6.476-1.506 1.355-5.347 4.593-5.347 4.594 3.088 4.594 5.2A4.431 4.431 0 0 1 37.5 31.25a3.963 3.963 0 0 1-3.916-2.184c-5.723 6.1-11.446-1.205-11.446-1.205-13.4 8.962-18.3-.9-18.3-.9-3.314-7.605 6.175-11.37 6.175-11.37s-4.594-3.919-.753-7.759 11.3-1.506 11.3-1.506v3.162a6.816 6.816 0 0 0-6.024-1.732c-1.732.376-4.217 2.711-1.581 5.949s9.036 9.79 9.036 9.79V3.991c0-2.711-3.313-2.787-3.313-2.787V0h10.687zM8.657 27.41c4.743 3.99 10.166-1.882 10.166-1.882l-7-8.133C3.16 22.289 8.657 27.41 8.657 27.41m26.356-1.2s0 3.84 2.409 3.84c2.64 0 2.485-3.992 2.485-3.992s-.164-3.5-2.711-3.238c-2.183.226-2.183 3.389-2.183 3.389" style="fill:#1f252e"/>
    </g>
</svg>
