<svg xmlns="http://www.w3.org/2000/svg" width="44.077" height="45.642" viewBox="0 0 44.077 45.642">
    <defs>
        <clipPath id="cftulbseya">
            <path data-name="Rectangle 737" style="fill:#1f252e" d="M0 0h44.077v45.642H0z"/>
        </clipPath>
    </defs>
    <g data-name="Group 520">
        <path data-name="Path 4802" d="M1.363 32.763V1.402l41.345.012v31.357L22.053 44.118zM0 0v33.657l22.044 11.984 22.033-11.979V0z" style="fill:#1f252e"/>
        <g data-name="Group 519">
            <g data-name="Group 518" style="clip-path:url(#cftulbseya)">
                <path data-name="Path 4803" d="M3.63 33.234 22.3 43.47l18.631-10.231v-9.072H3.625zm29.764-7.375h4.619a.492.492 0 0 1 .58.4v2.713c.006.416-.048.57-.432.668l-1.219.27 2.355 2.2-1.025.553-2.672-2.472-1.067.23v4.263l-1.136.614v-9.439zm-5.923 0h3.739v1.165h-2.623v3.462l2.626-.543V31.1l-2.626.583v4.957l2.624-1.287v1.132l-3.741 2.04zm-6.8 0v12.933l1.628.821 1.621-.774V25.86h1.34v13.821l-2.96 1.605-2.971-1.606V25.86zm-3.551 0v1.165h-2.626v2.835l2.623.578v1.152l-2.617-.567v4.854l2.62 1.347v1.306l-3.73-2.045V25.86zm-10.026 0v2.389l2.987.64V25.86h1.111v9.434l-1.111-.6v-4.633l-2.989-.651v3.69l-1.116-.6v-6.64z" transform="translate(-.246 -1.64)" style="fill:#1f252e"/>
                <path data-name="Path 4804" d="M3.625 21.8h37.306V3.675h-37.3zM28.553 4.837l3.783 2.685-3.783 3.033V9.1a4.169 4.169 0 0 0-4.2 4.217 4.265 4.265 0 0 0 4.264 4.266 4.32 4.32 0 0 0 3.808-2.406l-4.148-.006V16.4L25.3 13.95l2.978-2.45v1.2H35.7c.015.194.023.421.023.62a7.11 7.11 0 1 1-7.174-7.106zM9.3 6.282h8.942v2.771h-2.993V14.8l5.918-8.52h3.084v.882l-.138.208a7.532 7.532 0 0 0-2.643 3.81l-3.055 4.4h2.873l.147-.242a7.335 7.335 0 0 0 2.814 4.03v.748h-2.96v-1.965H16.65l-1.358 1.94h-3.708l.424-.676V9.053H9.3z" transform="translate(-.246 -.249)" style="fill:#1f252e"/>
                <path data-name="Path 4805" d="M39.736 28.743V27.39a.128.128 0 0 0-.136-.142h-2.822v2.207l2.832-.593c.075 0 .126-.025.126-.119" transform="translate(-2.497 -1.849)" style="fill:#1f252e"/>
            </g>
        </g>
    </g>
</svg>
