<svg data-name="Group 143" xmlns="http://www.w3.org/2000/svg" width="115.215" height="14.832" viewBox="0 0 115.215 14.832">
    <defs>
        <clipPath id="unmdueknsa">
            <path data-name="Rectangle 210" style="fill:none" d="M0 0h115.215v14.832H0z"/>
        </clipPath>
    </defs>
    <g data-name="Group 142" style="clip-path:url(#unmdueknsa)">
        <path data-name="Path 410" d="m26.02 3.331.469 2.758h-.26c-.365-1.718-1.925-2.446-3.591-2.446a2.889 2.889 0 0 0-.885.1v4.74h.625c1.352 0 2.185-.521 2.185-1.613h.26v3.85h-.208a1.894 1.894 0 0 0-2.185-1.873h-.677v4.371c0 .728.312 1.145 1.4 1.145v.261h-4.627v-.261c1.041 0 1.406-.416 1.406-1.145V4.736c0-.677-.416-1.145-1.457-1.145v-.26zm9.367 0 .468 2.758h-.26C35.23 4.371 33.669 3.643 32 3.643a2.885 2.885 0 0 0-.884.1v4.74h.625c1.352 0 2.186-.521 2.186-1.613h.26v3.85h-.208A1.894 1.894 0 0 0 31.8 8.848h-.677v4.371c0 .728.312 1.145 1.4 1.145v.261h-4.63v-.261c1.04 0 1.4-.416 1.4-1.145V4.736c0-.677-.416-1.145-1.457-1.145v-.26zm-19.15 0v.26a1.1 1.1 0 0 0-1.249 1.145v8.482a1.1 1.1 0 0 0 1.249 1.145v.261h-4.372v-.261c.781-.051 1.249-.364 1.249-1.145V4.736a1.1 1.1 0 0 0-1.249-1.145v-.26zM10.564.26l.468 3.383h-.208A4.126 4.126 0 0 0 6.609.677v11.968c0 1.3.728 1.717 1.509 1.717v.261h-5.2v-.261a1.551 1.551 0 0 0 1.613-1.717V.677c-2.398 0-3.49 1.092-4.322 2.966H0L.365.26zm64.008 10.668A2.952 2.952 0 0 0 77.643 14a3.081 3.081 0 0 0 2.342-1.145L76.342 8.17a2.8 2.8 0 0 0-1.769 2.758m5-6.973c0-1.446-.63-2.186-1.873-2.186a1.793 1.793 0 0 0-1.979 1.925c0 1.353 1.822 3.227 1.822 3.227 1.457-.832 2.025-1.665 2.025-2.966zM77.8 7.234l3.123 3.9a4 4 0 0 0 .364-1.249c0-.728-.364-.989-.989-1.092v-.206h3.382s.051.208 0 .208a3.26 3.26 0 0 0-1.562.676 7.071 7.071 0 0 0-.989 1.926l1.457 1.769a3.329 3.329 0 0 0 2.342 1.2v.261h-3.643v-.261l-1.041-1.248a5.553 5.553 0 0 1-3.694 1.662c-2.238 0-3.7-1.249-3.7-2.966 0-1.873 1.769-3.071 3.174-4.007a6.216 6.216 0 0 1-1.51-3.278 3.093 3.093 0 0 1 3.227-3.122 2.812 2.812 0 0 1 2.966 2.654c.006 1.663-1.919 2.392-2.907 3.173zM100.488 0l.156 4.527h-.26c-.469-2.55-2.133-4.006-4.268-4.006-2.55 0-4.319 2.966-4.319 6.921 0 4.944 1.977 6.973 4.684 6.973 2.809 0 3.9-2.6 4.163-4.475h.26v1.977a5.385 5.385 0 0 1-4.839 2.758c-3.748 0-6.662-3.071-6.662-7.181 0-3.747 3.279-7.182 6.662-7.182 1.977 0 2.5.833 3.278.833.572 0 .833-.364.885-1.145h.26zm13.686 12.542a1.044 1.044 0 0 1 1.041 1.041 1.042 1.042 0 0 1-2.082 0 1.044 1.044 0 0 1 1.041-1.041M103.923 8.8c0 3.486 1.352 5.62 3.486 5.62 2.186 0 3.537-1.977 3.537-5.62 0-3.331-1.2-5.2-3.486-5.256-2.341-.052-3.537 2.186-3.537 5.256m3.435-5.517A5.8 5.8 0 0 1 113.29 9a5.646 5.646 0 0 1-5.829 5.621A5.837 5.837 0 0 1 101.529 9a5.867 5.867 0 0 1 5.829-5.724M39.81 5.724l1.925 4.632h-3.8zm6.244 8.638a1.336 1.336 0 0 1-.937-.623c-.156-.261-4.527-10.981-4.527-10.981l-4.007 9.783c-.468 1.248-1.093 1.821-1.977 1.821v.261h3.278v-.261c-.676-.051-1.093-.364-1.093-.833a24.705 24.705 0 0 1 1.04-2.862h3.955a21.536 21.536 0 0 1 1.145 2.862c.052.416-.572.833-1.2.833v.261h4.319v-.26zm1.822-1.718a1.7 1.7 0 0 1-1.4 1.717v.261h3.274v-.261a1.682 1.682 0 0 1-1.457-1.717V5.309l7.65 9.523V5.673c0-1.3.728-2.082 1.561-2.082v-.26h-3.696v.208a2.131 2.131 0 0 1 1.769 2.134v5.621l-6.348-7.962H46.21v.208a1.665 1.665 0 0 1 1.665 1.4v7.7zM57.92 3.591c.464 0 .574 0 .937.677 0 0 3.486 5.569 3.486 5.62v3.33c0 .728-.625 1.145-1.561 1.2v.208h4.84v-.208c-.885-.052-1.457-.469-1.457-1.2v-3.9s2.235-4.01 2.445-4.374a2.9 2.9 0 0 1 2.133-1.457V3.33h-3.955l.052.156a1.227 1.227 0 0 1 1.092 1.925L63.9 9.158l-2.5-4.371c-.418-.677.1-1.3 1.04-1.3V3.33h-4.522v.26z" style="fill-rule:evenodd"/>
    </g>
</svg>
